<svg xmlns="http://www.w3.org/2000/svg" width="1024" height="1024" viewBox="0 0 1024 1024">
  <title>Washing Machine</title>
  <g shape-rendering="geometricPrecision">
    <path d="M 837 716 L 830 730 L 806 734 L 727 783 L 719 798 L 697 805 L 635 801 L 626 793 L 355 767 L 270 805 L 352 768 L 623 793 L 638 802 L 698 805 L 721 797 L 726 784 L 808 733 L 829 731 L 835 726 Z" fill="#00051F" fill-rule="evenodd"/><path d="M 861 674 L 703 775 L 681 782 L 360 754 L 352 731 L 337 739 L 350 734 L 358 742 L 360 755 L 675 783 L 705 774 L 860 679 L 860 695 L 838 714 L 859 698 Z" fill="#00051F" fill-rule="evenodd"/><path d="M 348 535 L 351 540 L 360 536 L 363 536 L 382 560 L 395 572 L 416 586 L 432 594 L 446 599 L 461 602 L 483 602 L 503 598 L 521 590 L 503 598 L 480 602 L 464 602 L 447 599 L 422 589 L 392 569 L 378 555 L 363 536 L 351 539 Z" fill="#00051F" fill-rule="evenodd"/><path d="M 427 535 L 429 538 L 440 547 L 464 559 L 467 559 L 476 562 L 481 562 L 482 563 L 495 563 L 496 562 L 507 561 L 511 559 L 507 561 L 495 562 L 494 563 L 484 563 L 483 562 L 477 562 L 476 561 L 468 560 L 457 556 L 445 550 L 436 544 L 428 536 L 428 534 L 430 532 L 434 532 L 430 532 L 428 533 Z" fill="#00051F" fill-rule="evenodd"/><path d="M 380 509 L 385 520 L 396 536 L 412 552 L 431 565 L 447 572 L 464 576 L 485 575 L 498 570 L 498 567 L 473 567 L 446 560 L 417 542 L 397 520 L 419 544 L 434 554 L 454 563 L 472 567 L 493 568 L 494 571 L 484 575 L 464 576 L 442 570 L 428 563 L 410 550 L 397 537 L 385 520 Z" fill="#00051F" fill-rule="evenodd"/><path d="M 356 478 L 362 513 L 381 548 L 409 575 L 438 590 L 465 596 L 496 593 L 527 578 L 549 553 L 542 546 L 515 572 L 486 583 L 463 584 L 439 578 L 408 560 L 386 537 L 369 506 L 364 479 L 369 506 L 382 532 L 404 557 L 438 578 L 461 584 L 487 583 L 517 571 L 541 547 L 548 552 L 529 576 L 499 592 L 469 596 L 436 589 L 407 573 L 382 549 L 363 515 Z" fill="#00051F" fill-rule="evenodd"/><path d="M 574 428 L 576 434 L 574 428 L 572 426 L 569 426 L 564 429 L 562 429 L 551 434 L 548 437 L 547 446 L 547 441 L 550 435 L 570 426 L 572 426 Z" fill="#00051F" fill-rule="evenodd"/><path d="M 397 411 L 394 414 L 390 422 L 388 428 L 388 433 L 390 434 L 388 432 L 388 428 L 392 418 L 397 412 L 399 412 L 418 433 L 418 436 L 413 445 L 411 445 L 401 440 L 411 445 L 413 445 L 419 435 L 419 433 L 410 423 Z" fill="#00051F" fill-rule="evenodd"/><path d="M 452 386 L 447 384 L 444 384 L 443 385 L 437 385 L 436 386 L 432 386 L 426 388 L 408 398 L 405 401 L 405 404 L 419 422 L 426 428 L 454 407 L 456 402 L 456 392 Z M 450 385 L 455 390 L 456 393 L 456 401 L 454 406 L 427 427 L 425 427 L 405 404 L 405 401 L 413 395 L 424 389 L 438 385 Z" fill="#00051F" fill-rule="evenodd"/><path d="M 362 435 L 374 412 L 393 392 L 416 378 L 447 370 L 479 372 L 505 382 L 530 401 L 548 426 L 545 432 L 541 432 L 524 407 L 503 390 L 479 380 L 453 377 L 423 383 L 400 395 L 380 415 L 368 440 L 377 420 L 394 400 L 418 385 L 443 378 L 468 378 L 495 386 L 510 395 L 528 412 L 540 432 L 544 433 L 548 428 L 535 406 L 507 383 L 479 372 L 446 370 L 416 378 L 394 391 L 376 409 Z" fill="#00051F" fill-rule="evenodd"/><path d="M 483 366 L 493 369 L 505 375 L 522 387 L 538 403 L 554 426 L 575 419 L 554 426 L 539 404 L 534 398 L 520 385 L 505 375 L 493 369 Z" fill="#00051F" fill-rule="evenodd"/><path d="M 395 319 L 361 335 L 338 352 L 317 375 L 297 412 L 288 446 L 286 482 L 293 524 L 306 558 L 320 582 L 346 612 L 373 633 L 404 649 L 436 659 L 477 663 L 508 660 L 545 648 L 567 635 L 591 613 L 611 583 L 622 555 L 629 517 L 629 482 L 624 451 L 612 416 L 597 389 L 566 354 L 520 325 L 466 311 L 432 311 Z M 303 400 L 306 401 L 306 403 L 304 406 L 301 405 L 301 403 Z M 310 390 L 311 393 L 308 399 L 305 400 L 304 397 L 307 391 Z M 319 376 L 320 379 L 318 380 L 318 382 L 316 383 L 316 385 L 313 386 L 312 383 L 314 382 L 314 380 L 316 379 L 316 377 Z M 321 371 L 324 372 L 324 374 L 322 376 L 319 375 L 319 373 Z M 329 364 L 330 367 L 328 368 L 327 370 L 325 370 L 324 367 L 326 366 L 327 364 Z M 341 350 L 344 351 L 344 353 L 342 355 L 339 354 L 339 352 Z M 345 347 L 348 346 L 349 349 L 346 350 Z M 349 344 L 352 343 L 353 346 L 350 347 Z M 372 332 L 371 335 L 365 337 L 364 339 L 360 340 L 359 342 L 356 341 L 357 338 L 359 338 L 360 336 L 364 335 L 365 333 L 369 331 Z M 393 320 L 464 311 L 517 324 L 571 359 L 612 417 L 629 485 L 622 554 L 592 611 L 544 648 L 500 661 L 458 662 L 400 647 L 351 616 L 322 584 L 303 551 L 287 490 L 287 455 L 298 410 L 303 408 L 293 451 L 302 411 L 322 376 L 350 348 L 392 325 L 458 316 L 529 337 L 580 381 L 610 437 L 579 379 L 524 334 L 462 316 L 424 317 L 375 330 Z" fill="#00051F" fill-rule="evenodd"/><path d="M 646 240 L 648 241 L 647 244 L 641 242 L 634 242 L 626 246 L 624 246 L 623 244 L 620 247 L 622 248 L 622 250 L 618 257 L 617 263 L 614 264 L 617 265 L 618 272 L 622 280 L 630 287 L 637 289 L 640 289 L 649 286 L 655 280 L 659 270 L 658 258 L 653 250 L 654 247 L 657 248 L 652 243 L 652 245 L 649 246 L 648 243 L 650 242 Z M 635 242 L 640 242 L 648 245 L 656 254 L 659 264 L 658 273 L 654 281 L 650 285 L 644 288 L 633 288 L 629 286 L 621 278 L 618 271 L 618 258 L 620 253 L 626 246 L 631 243 L 634 243 Z" fill="#00051F" fill-rule="evenodd"/><path d="M 674 228 L 677 229 L 677 247 L 677 230 L 680 229 L 688 233 L 693 238 L 698 247 L 699 255 L 700 256 L 700 303 L 697 307 L 678 307 L 677 306 L 677 281 L 677 306 L 675 307 L 695 308 L 699 306 L 700 304 L 700 254 L 699 253 L 699 249 L 696 242 L 691 235 L 681 229 Z" fill="#00051F" fill-rule="evenodd"/><path d="M 231 228 L 231 284 L 352 291 L 381 290 L 362 290 L 361 287 L 350 287 L 349 290 L 334 289 L 335 286 L 343 286 L 333 286 L 332 289 L 317 288 L 318 285 L 326 285 L 316 285 L 315 288 L 298 288 L 232 284 Z" fill="#00051F" fill-rule="evenodd"/><path d="M 330 769 L 329 772 L 326 773 L 322 773 L 321 772 L 321 775 L 320 776 L 318 776 L 317 774 L 316 776 L 309 776 L 308 774 L 283 787 L 281 787 L 275 790 L 272 798 L 279 799 L 280 800 L 280 803 L 281 801 L 285 801 L 287 798 L 296 796 L 296 793 L 297 792 L 300 793 L 307 791 L 307 788 L 310 786 L 313 787 L 324 781 L 328 781 L 330 780 L 332 776 L 330 775 Z" fill="#01214B" fill-rule="evenodd"/><path d="M 359 744 L 351 736 L 353 730 L 288 764 L 286 768 L 283 767 L 284 762 L 291 757 L 292 752 L 278 760 L 272 758 L 273 753 L 287 743 L 336 718 L 340 714 L 336 710 L 270 750 L 268 765 L 282 769 L 278 777 L 270 780 L 269 776 L 231 766 L 99 739 L 92 741 L 92 745 L 99 748 L 103 746 L 104 749 L 170 760 L 261 781 L 279 777 L 316 757 L 320 759 L 324 752 L 348 740 Z" fill="#01214B" fill-rule="evenodd"/><path d="M 860 677 L 705 775 L 683 783 L 360 756 L 359 751 L 351 762 L 334 769 L 338 775 L 349 768 L 363 767 L 626 792 L 637 802 L 699 805 L 716 800 L 731 780 L 806 733 L 822 734 L 832 729 L 838 715 L 857 699 Z" fill="#01214B" fill-rule="evenodd"/><path d="M 534 358 L 545 366 L 559 380 L 551 371 Z" fill="#01214B" fill-rule="evenodd"/><path d="M 379 345 L 392 339 L 412 333 L 422 332 L 423 331 L 429 331 L 430 330 L 443 330 L 446 329 L 447 330 L 463 330 L 464 331 L 470 331 L 471 332 L 476 332 L 477 333 L 488 335 L 500 340 L 505 341 L 519 348 L 521 350 L 521 349 L 505 341 L 495 338 L 492 336 L 485 335 L 481 333 L 472 332 L 471 331 L 451 330 L 450 329 L 429 330 L 428 331 L 416 332 L 415 333 L 404 335 L 400 337 L 397 337 L 394 339 L 384 342 Z" fill="#01214B" fill-rule="evenodd"/><path d="M 392 320 L 366 332 L 326 364 L 296 414 L 289 440 L 286 483 L 290 512 L 303 552 L 325 589 L 348 614 L 399 647 L 441 660 L 470 663 L 503 661 L 543 649 L 571 632 L 592 612 L 609 587 L 621 559 L 629 519 L 629 480 L 613 418 L 595 386 L 565 353 L 513 322 L 467 311 L 431 311 Z M 433 520 L 436 519 L 437 520 L 437 523 L 434 524 L 433 523 Z M 374 474 L 375 473 L 378 474 L 379 480 L 381 481 L 380 484 L 387 503 L 389 504 L 392 513 L 395 515 L 395 518 L 398 520 L 401 526 L 406 530 L 406 532 L 414 540 L 418 541 L 423 547 L 425 547 L 432 553 L 435 553 L 439 557 L 443 559 L 447 559 L 448 561 L 451 560 L 453 563 L 456 562 L 457 564 L 460 563 L 461 565 L 464 564 L 465 566 L 470 565 L 471 567 L 478 566 L 479 568 L 481 568 L 482 566 L 486 567 L 494 566 L 495 570 L 491 574 L 488 575 L 484 574 L 483 576 L 478 575 L 476 577 L 466 577 L 465 575 L 459 576 L 458 574 L 455 575 L 454 573 L 450 574 L 447 573 L 445 570 L 440 568 L 435 568 L 431 566 L 428 562 L 425 562 L 420 559 L 419 556 L 415 555 L 415 553 L 412 553 L 410 549 L 407 548 L 399 540 L 399 538 L 395 536 L 395 533 L 393 533 L 392 529 L 389 528 L 388 523 L 386 522 L 384 516 L 381 514 L 381 510 L 378 502 L 376 501 L 377 498 L 375 497 L 376 494 L 374 493 L 375 488 L 373 487 Z M 374 468 L 377 467 L 378 468 L 378 471 L 375 472 L 374 471 Z M 424 462 L 429 461 L 452 479 L 494 497 L 497 495 L 517 500 L 541 499 L 540 520 L 533 540 L 534 547 L 506 562 L 478 563 L 462 557 L 459 558 L 426 536 L 427 533 L 446 529 L 453 537 L 470 548 L 488 554 L 502 555 L 475 550 L 456 539 L 447 529 L 473 518 L 496 531 L 508 535 L 508 546 L 510 535 L 482 524 L 474 519 L 473 515 L 469 515 L 455 505 L 431 479 Z M 535 452 L 539 456 L 541 462 L 541 467 L 543 468 L 543 494 L 541 495 L 541 498 L 534 500 L 517 500 L 516 499 L 511 499 L 510 498 L 505 498 L 498 496 L 497 495 L 497 492 L 500 490 L 500 488 L 502 487 L 502 485 L 504 484 L 504 482 L 506 481 L 510 473 L 519 461 L 519 459 L 522 457 L 524 454 L 526 454 L 528 452 Z M 386 447 L 389 448 L 389 452 L 390 449 L 393 450 L 393 453 L 392 454 L 393 456 L 394 454 L 399 455 L 401 458 L 401 463 L 403 463 L 406 469 L 409 470 L 408 478 L 413 480 L 413 483 L 411 484 L 413 487 L 416 488 L 416 494 L 419 494 L 424 503 L 431 512 L 430 515 L 432 516 L 433 522 L 432 523 L 429 523 L 416 516 L 405 505 L 396 492 L 389 477 L 387 467 L 386 466 L 386 460 L 385 459 L 385 448 Z M 388 440 L 391 439 L 392 442 L 389 443 Z M 395 412 L 398 412 L 400 413 L 401 415 L 403 415 L 411 423 L 413 426 L 413 428 L 416 429 L 420 433 L 420 435 L 414 444 L 409 445 L 401 441 L 400 439 L 395 438 L 393 435 L 387 433 L 387 429 L 389 428 L 390 425 L 389 422 L 392 420 L 393 414 Z M 452 385 L 454 387 L 454 390 L 457 392 L 457 400 L 455 401 L 456 402 L 455 407 L 437 421 L 434 421 L 434 423 L 428 428 L 424 428 L 418 422 L 417 418 L 415 418 L 408 410 L 408 407 L 406 407 L 404 404 L 404 402 L 406 401 L 406 399 L 407 398 L 410 398 L 411 396 L 413 396 L 413 394 L 416 392 L 420 392 L 425 389 L 433 387 L 434 385 L 437 385 L 438 386 L 439 384 L 443 384 L 444 383 L 447 383 Z M 430 372 L 464 369 L 497 377 L 524 394 L 546 421 L 547 430 L 542 434 L 526 409 L 498 387 L 480 380 L 450 377 L 417 385 L 397 397 L 379 416 L 367 440 L 363 480 L 371 512 L 391 544 L 423 571 L 450 582 L 482 584 L 514 573 L 541 546 L 548 550 L 548 557 L 533 574 L 496 594 L 452 595 L 417 581 L 384 553 L 360 510 L 355 459 L 362 432 L 375 409 L 394 390 Z M 439 314 L 506 325 L 561 359 L 589 392 L 574 400 L 590 395 L 606 422 L 620 487 L 600 494 L 597 533 L 582 568 L 548 540 L 556 495 L 546 446 L 555 431 L 574 428 L 578 420 L 584 427 L 580 419 L 553 426 L 509 377 L 452 359 L 398 369 L 356 403 L 333 461 L 335 501 L 349 538 L 363 535 L 399 575 L 449 600 L 515 594 L 472 613 L 421 606 L 449 613 L 496 607 L 555 560 L 580 573 L 542 621 L 476 646 L 404 636 L 351 604 L 314 558 L 291 491 L 296 425 L 327 368 L 377 330 Z" fill="#01214B" fill-rule="evenodd"/><path d="M 597 282 L 594 286 L 594 290 L 597 294 L 603 295 L 606 292 L 607 287 L 605 283 L 603 282 Z M 597 282 L 603 282 L 607 287 L 607 290 L 603 295 L 597 294 L 594 290 L 594 286 Z" fill="#01214B" fill-rule="evenodd"/><path d="M 633 238 L 626 241 L 624 244 L 618 249 L 614 259 L 614 273 L 617 281 L 619 284 L 623 287 L 623 289 L 625 289 L 627 292 L 631 294 L 638 296 L 644 296 L 653 292 L 659 285 L 662 279 L 663 272 L 664 271 L 663 258 L 659 250 L 655 247 L 655 245 L 653 245 L 651 242 L 648 242 L 646 241 L 645 239 L 642 238 Z M 634 241 L 639 241 L 640 243 L 641 242 L 644 242 L 650 245 L 656 252 L 659 258 L 659 263 L 658 264 L 660 265 L 660 267 L 658 268 L 659 269 L 659 274 L 656 276 L 656 280 L 653 281 L 653 283 L 650 284 L 649 287 L 647 288 L 644 287 L 643 289 L 640 290 L 634 289 L 633 287 L 630 288 L 627 286 L 621 280 L 617 272 L 617 266 L 618 264 L 616 263 L 616 261 L 620 251 L 627 244 L 631 244 L 631 243 Z" fill="#01214B" fill-rule="evenodd"/><path d="M 513 234 L 514 235 L 514 254 L 512 255 L 512 265 L 514 266 L 513 272 L 514 273 L 519 272 L 520 274 L 534 273 L 538 275 L 552 274 L 553 276 L 571 276 L 573 278 L 573 280 L 571 282 L 570 288 L 574 293 L 579 293 L 582 290 L 579 293 L 574 293 L 571 290 L 570 285 L 574 280 L 581 281 L 583 284 L 583 288 L 583 284 L 580 280 L 581 277 L 601 277 L 602 275 L 602 268 L 600 267 L 600 263 L 601 268 L 600 271 L 594 272 L 591 271 L 591 256 L 592 255 L 599 256 L 601 259 L 601 251 L 600 250 L 602 244 L 601 238 L 598 237 L 586 238 L 585 236 L 571 237 L 569 235 L 554 236 L 553 234 L 537 235 L 536 233 L 521 234 L 520 232 L 515 232 Z M 543 241 L 544 240 L 551 240 L 552 239 L 559 239 L 560 241 L 574 240 L 575 242 L 584 242 L 586 244 L 586 246 L 583 251 L 580 261 L 577 267 L 574 270 L 570 270 L 569 268 L 553 269 L 552 267 L 539 268 L 538 266 L 535 266 L 534 265 L 534 262 L 536 259 L 536 255 L 538 254 Z" fill="#01214B" fill-rule="evenodd"/><path d="M 678 228 L 678 247 L 677 248 L 677 255 L 680 255 L 684 260 L 684 273 L 681 278 L 678 278 L 677 279 L 668 278 L 676 279 L 678 281 L 678 298 L 677 299 L 678 300 L 678 304 L 676 306 L 670 306 L 672 307 L 675 306 L 686 306 L 687 308 L 688 308 L 689 306 L 695 306 L 696 308 L 700 305 L 699 304 L 699 254 L 700 253 L 698 252 L 697 249 L 698 246 L 695 244 L 695 240 L 692 239 L 690 236 L 690 234 L 687 234 L 683 231 L 679 230 Z" fill="#01214B" fill-rule="evenodd"/><path d="M 232 215 L 232 279 L 230 281 L 235 285 L 255 283 L 256 286 L 274 285 L 276 287 L 280 285 L 292 286 L 293 288 L 310 287 L 312 289 L 313 287 L 329 288 L 330 290 L 334 288 L 349 289 L 350 291 L 352 289 L 364 289 L 365 291 L 374 283 L 376 276 L 376 212 L 385 211 L 372 211 L 373 277 L 369 283 L 361 288 L 355 288 L 354 286 L 336 287 L 335 285 L 317 286 L 316 284 L 300 285 L 299 283 L 285 284 L 284 282 L 264 283 L 249 280 L 241 270 L 242 216 L 245 204 L 240 204 Z" fill="#01214B" fill-rule="evenodd"/><path d="M 101 763 L 110 764 L 134 770 L 149 772 L 164 776 L 169 776 L 174 778 L 198 782 L 208 785 L 213 785 L 238 790 L 252 794 L 258 794 L 264 788 L 264 786 L 263 790 L 260 793 L 253 794 L 239 790 L 229 789 L 204 784 L 199 782 Z" fill="#114455" fill-rule="evenodd"/><path d="M 336 747 L 335 745 L 332 747 L 330 747 L 330 748 L 332 749 Z" fill="#114455" fill-rule="evenodd"/><path d="M 95 739 L 94 741 L 91 740 L 89 741 L 82 748 L 80 753 L 82 748 L 87 743 L 90 743 L 91 745 L 93 745 L 94 747 L 95 745 Z" fill="#114455" fill-rule="evenodd"/><path d="M 357 740 L 353 738 L 342 744 L 346 745 L 345 750 L 336 759 L 325 764 L 321 763 L 319 756 L 325 753 L 328 749 L 326 746 L 329 745 L 326 744 L 322 749 L 319 748 L 315 753 L 312 752 L 311 755 L 315 755 L 314 760 L 306 760 L 305 756 L 298 761 L 300 762 L 299 765 L 294 765 L 291 768 L 288 768 L 287 764 L 292 762 L 290 761 L 292 756 L 290 755 L 290 752 L 287 754 L 289 757 L 285 764 L 279 769 L 273 769 L 275 772 L 272 775 L 266 775 L 269 776 L 269 778 L 265 780 L 266 782 L 271 781 L 296 766 L 299 767 L 309 761 L 313 765 L 312 770 L 305 775 L 304 778 L 301 777 L 301 779 L 304 778 L 304 783 L 312 783 L 313 786 L 288 798 L 285 798 L 284 796 L 280 800 L 272 795 L 271 800 L 264 800 L 263 806 L 269 806 L 270 804 L 280 801 L 283 802 L 286 798 L 292 798 L 293 795 L 300 792 L 303 793 L 304 790 L 315 785 L 318 786 L 321 782 L 324 783 L 331 777 L 344 771 L 347 772 L 348 769 L 355 766 L 355 761 L 359 760 L 357 757 L 360 753 L 358 752 L 358 748 L 360 747 L 357 745 Z M 335 773 L 335 768 L 336 767 L 341 767 L 342 768 L 342 770 L 339 771 L 338 774 Z M 349 764 L 350 767 L 348 768 L 347 770 L 343 771 L 342 770 L 342 767 L 343 766 L 346 766 L 347 764 Z" fill="#114455" fill-rule="evenodd"/><path d="M 177 679 L 181 688 L 189 696 L 197 700 L 204 702 L 208 702 L 209 703 L 234 703 L 235 702 L 242 702 L 243 701 L 253 700 L 275 693 L 288 686 L 286 686 L 273 692 L 252 698 L 240 699 L 239 700 L 219 701 L 218 700 L 209 700 L 193 695 L 187 691 L 180 684 L 178 679 Z" fill="#114455" fill-rule="evenodd"/><path d="M 192 666 L 192 669 L 194 669 L 195 671 L 197 671 L 200 675 L 200 678 L 197 679 L 199 682 L 202 682 L 206 684 L 207 686 L 210 687 L 213 686 L 215 688 L 218 686 L 231 686 L 227 686 L 226 685 L 226 682 L 229 680 L 231 680 L 232 682 L 234 683 L 235 687 L 238 688 L 239 681 L 240 680 L 247 680 L 249 686 L 269 678 L 259 681 L 258 680 L 245 680 L 244 679 L 218 677 L 217 676 L 201 674 L 197 671 L 197 664 L 196 667 Z M 207 682 L 208 681 L 213 681 L 214 682 L 214 685 L 213 686 L 209 686 L 207 684 Z" fill="#114455" fill-rule="evenodd"/><path d="M 481 547 L 481 548 L 479 550 L 477 550 L 477 551 L 480 552 L 481 551 Z" fill="#114455" fill-rule="evenodd"/><path d="M 507 542 L 507 544 L 504 545 L 504 546 L 506 547 L 506 549 L 508 551 L 507 550 L 508 547 L 507 546 Z" fill="#114455" fill-rule="evenodd"/><path d="M 533 539 L 530 545 L 526 547 L 524 547 L 523 545 L 522 546 L 523 549 L 520 551 L 520 553 L 518 555 L 522 551 L 526 551 L 533 548 L 533 545 L 534 544 L 533 543 Z" fill="#114455" fill-rule="evenodd"/><path d="M 585 531 L 584 531 L 585 535 L 583 536 L 582 543 L 576 559 L 579 554 L 579 552 L 580 551 L 583 551 L 583 548 L 586 547 L 583 546 L 583 544 L 586 540 L 585 539 L 586 536 L 585 535 Z" fill="#114455" fill-rule="evenodd"/><path d="M 596 461 L 595 461 L 595 465 L 594 466 L 596 467 L 596 469 L 594 470 L 593 472 L 589 472 L 588 470 L 586 469 L 586 467 L 585 469 L 587 472 L 586 477 L 589 478 L 587 485 L 587 490 L 588 491 L 588 495 L 590 496 L 590 500 L 588 501 L 590 502 L 590 505 L 587 506 L 588 512 L 590 513 L 590 515 L 586 518 L 587 521 L 587 519 L 590 518 L 591 515 L 594 515 L 593 513 L 591 512 L 591 510 L 593 507 L 596 507 L 599 511 L 599 504 L 598 506 L 594 506 L 593 505 L 593 502 L 594 501 L 597 501 L 597 499 L 599 498 L 599 494 L 600 493 L 600 488 L 596 485 L 596 483 L 598 482 L 599 478 L 597 477 L 598 472 L 596 470 L 596 467 L 597 466 L 595 465 Z M 588 490 L 589 489 L 593 490 L 594 492 L 596 493 L 596 495 L 595 496 L 591 496 L 590 493 L 588 492 Z" fill="#114455" fill-rule="evenodd"/><path d="M 424 457 L 423 458 L 426 468 L 430 476 L 438 487 L 455 504 L 463 510 L 465 510 L 466 512 L 468 512 L 469 514 L 472 515 L 470 520 L 468 520 L 455 527 L 453 527 L 452 530 L 448 529 L 444 530 L 447 531 L 448 533 L 454 534 L 456 536 L 456 538 L 458 538 L 459 540 L 462 540 L 463 543 L 463 541 L 461 539 L 461 537 L 463 536 L 461 536 L 459 534 L 459 531 L 462 530 L 463 525 L 469 521 L 471 521 L 473 527 L 475 527 L 473 526 L 472 522 L 473 521 L 475 521 L 476 523 L 478 522 L 473 520 L 473 515 L 476 512 L 479 512 L 479 510 L 482 507 L 487 505 L 487 503 L 491 501 L 493 496 L 490 496 L 472 490 L 452 480 L 436 469 Z" fill="#114455" fill-rule="evenodd"/><path d="M 389 435 L 390 438 L 388 439 L 387 447 L 386 448 L 386 459 L 387 460 L 387 466 L 388 467 L 389 474 L 397 492 L 406 505 L 416 515 L 429 522 L 439 524 L 427 509 L 414 487 L 414 485 L 408 472 L 407 459 L 407 462 L 406 463 L 402 462 L 401 459 L 404 457 L 399 455 L 399 448 L 394 449 L 391 447 L 391 439 L 392 438 L 395 438 L 400 441 Z" fill="#114455" fill-rule="evenodd"/><path d="M 578 418 L 578 421 L 574 426 L 575 429 L 578 431 L 577 434 L 578 435 L 578 440 L 581 447 L 583 459 L 584 459 L 582 453 L 582 449 L 578 437 L 580 436 L 581 433 L 586 433 L 589 439 L 589 441 L 589 438 L 585 428 L 583 427 L 582 421 L 580 421 Z" fill="#114455" fill-rule="evenodd"/><path d="M 448 315 L 447 312 L 444 312 L 443 315 L 435 315 Z" fill="#114455" fill-rule="evenodd"/><path d="M 203 200 L 194 200 L 173 221 L 173 256 L 185 268 L 187 268 L 191 263 L 193 263 L 197 257 L 200 254 L 202 254 L 203 250 L 206 249 L 209 244 L 211 243 L 211 240 L 210 239 L 211 231 L 209 226 L 209 221 L 210 219 L 209 219 L 206 215 L 205 212 L 206 209 L 204 208 L 204 201 Z" fill="#114455" fill-rule="evenodd"/><path d="M 883 145 L 903 184 L 912 221 L 919 357 L 920 465 L 917 500 L 920 572 L 928 608 L 949 654 L 943 259 L 926 189 Z" fill="#114455" fill-rule="evenodd"/><path d="M 261 771 L 262 773 L 270 775 L 277 770 L 271 769 L 267 766 L 267 764 L 264 770 Z" fill="#17686E" fill-rule="evenodd"/><path d="M 296 760 L 294 760 L 292 757 L 288 763 Z" fill="#17686E" fill-rule="evenodd"/><path d="M 346 744 L 338 746 L 340 747 L 340 753 L 339 754 L 344 750 Z" fill="#17686E" fill-rule="evenodd"/><path d="M 80 728 L 88 738 L 88 742 L 81 749 L 79 759 L 82 765 L 92 772 L 113 774 L 116 777 L 122 776 L 130 780 L 134 779 L 135 781 L 139 780 L 140 782 L 144 781 L 145 783 L 149 782 L 150 784 L 154 783 L 185 791 L 196 791 L 199 794 L 216 795 L 219 798 L 235 799 L 238 802 L 248 802 L 254 805 L 269 804 L 270 806 L 270 804 L 264 804 L 263 800 L 271 799 L 273 791 L 284 785 L 281 784 L 284 777 L 289 779 L 288 783 L 294 780 L 292 779 L 294 772 L 299 769 L 303 770 L 302 774 L 297 775 L 297 779 L 300 775 L 303 776 L 311 770 L 308 768 L 309 765 L 312 767 L 308 763 L 301 769 L 292 771 L 289 775 L 286 774 L 271 782 L 263 782 L 263 789 L 259 793 L 250 794 L 236 789 L 231 790 L 196 781 L 132 770 L 127 767 L 102 764 L 92 758 L 93 747 Z" fill="#17686E" fill-rule="evenodd"/><path d="M 295 720 L 283 726 L 269 736 L 263 743 L 258 755 L 259 756 L 260 750 L 264 742 L 274 732 Z" fill="#17686E" fill-rule="evenodd"/><path d="M 358 711 L 357 711 L 357 719 L 355 720 L 354 725 L 349 731 L 353 729 L 355 726 L 356 721 L 358 720 L 357 719 L 357 713 Z" fill="#17686E" fill-rule="evenodd"/><path d="M 181 684 L 181 686 L 183 688 L 183 691 L 186 694 L 189 694 L 190 697 L 193 697 L 194 699 L 199 701 L 202 700 L 203 702 L 204 701 L 207 701 L 208 703 L 209 702 L 215 702 L 216 704 L 222 704 L 223 702 L 234 702 L 236 703 L 237 701 L 242 701 L 244 702 L 245 700 L 250 701 L 251 699 L 254 700 L 255 698 L 258 699 L 261 698 L 262 696 L 270 695 L 284 689 L 281 688 L 278 689 L 277 691 L 273 691 L 267 693 L 266 695 L 263 694 L 260 695 L 259 697 L 256 696 L 255 698 L 251 697 L 250 699 L 247 699 L 246 698 L 245 700 L 237 699 L 236 701 L 228 701 L 227 700 L 211 701 L 210 699 L 206 700 L 205 698 L 202 699 L 201 697 L 198 696 L 195 697 L 193 694 L 188 693 L 187 690 L 185 690 L 181 686 Z" fill="#17686E" fill-rule="evenodd"/><path d="M 192 665 L 194 666 L 194 669 L 192 670 L 192 671 L 195 673 L 195 678 L 197 678 L 201 681 L 202 684 L 204 685 L 205 684 L 208 684 L 213 686 L 214 688 L 215 686 L 222 687 L 223 689 L 230 689 L 231 687 L 234 687 L 235 686 L 238 686 L 239 688 L 240 688 L 241 686 L 244 686 L 245 687 L 245 686 L 248 684 L 252 684 L 253 685 L 254 682 L 260 681 L 261 682 L 262 679 L 265 678 L 268 679 L 270 678 L 271 675 L 275 675 L 278 671 L 275 670 L 273 671 L 266 671 L 265 669 L 264 670 L 259 670 L 258 668 L 257 669 L 253 669 L 252 667 L 251 668 L 247 668 L 246 666 L 245 667 L 242 667 L 241 665 L 235 667 L 234 664 L 231 665 L 230 663 L 210 661 L 209 660 L 200 659 L 199 658 L 197 659 L 194 658 L 195 659 L 195 662 L 194 664 Z M 250 678 L 253 677 L 256 679 L 256 681 L 255 682 L 251 682 L 250 681 Z M 239 677 L 242 676 L 245 678 L 245 680 L 244 681 L 240 681 L 239 680 Z M 231 677 L 234 676 L 235 679 L 232 680 Z M 210 676 L 211 675 L 223 676 L 224 679 L 222 680 L 221 682 L 215 682 L 214 680 L 211 680 L 210 679 Z M 199 674 L 200 673 L 203 673 L 204 676 L 205 674 L 209 674 L 210 675 L 210 679 L 208 680 L 207 683 L 203 682 L 202 680 L 199 679 Z" fill="#17686E" fill-rule="evenodd"/><path d="M 873 144 L 886 176 L 892 288 L 892 588 L 898 610 L 943 663 L 948 654 L 934 626 L 919 567 L 919 360 L 913 234 L 900 176 L 882 145 Z" fill="#17686E" fill-rule="evenodd"/><path d="M 447 530 L 450 535 L 453 535 L 455 539 L 457 539 L 458 541 L 460 541 L 461 543 L 463 543 L 464 545 L 468 545 L 471 547 L 473 547 L 474 550 L 486 554 L 487 553 L 490 553 L 491 555 L 492 555 L 493 553 L 497 554 L 498 556 L 501 556 L 502 554 L 511 554 L 512 555 L 511 558 L 517 555 L 520 552 L 520 550 L 525 546 L 528 546 L 534 535 L 531 534 L 531 528 L 531 535 L 528 542 L 520 550 L 518 551 L 513 551 L 512 549 L 509 549 L 506 544 L 507 539 L 510 537 L 513 532 L 510 536 L 508 536 L 507 534 L 502 533 L 499 531 L 496 532 L 494 529 L 492 528 L 489 529 L 485 527 L 484 524 L 478 523 L 477 520 L 475 520 L 474 518 L 473 519 L 470 519 L 468 521 L 456 527 Z" fill="#204C83" fill-rule="evenodd"/><path d="M 377 474 L 375 486 L 377 487 L 376 492 L 378 493 L 377 496 L 379 497 L 378 500 L 381 509 L 387 516 L 386 519 L 387 521 L 389 522 L 389 524 L 391 525 L 391 527 L 393 528 L 393 530 L 393 526 L 391 524 L 391 521 L 392 520 L 395 520 L 396 523 L 396 520 L 395 520 L 394 517 L 392 516 L 390 510 L 388 510 L 385 505 L 386 502 L 381 491 L 379 482 L 377 481 L 378 478 L 377 477 Z M 388 517 L 391 516 L 392 519 L 389 520 Z" fill="#204C83" fill-rule="evenodd"/><path d="M 536 454 L 534 453 L 529 453 L 521 459 L 515 467 L 502 489 L 496 496 L 499 497 L 502 496 L 503 498 L 508 497 L 509 499 L 510 498 L 513 498 L 514 500 L 516 499 L 535 499 L 536 500 L 537 498 L 540 499 L 541 473 L 540 472 L 539 459 Z" fill="#204C83" fill-rule="evenodd"/><path d="M 386 402 L 380 406 L 380 409 L 376 411 L 376 413 L 374 414 L 374 416 L 372 417 L 373 420 L 371 422 L 369 422 L 364 432 L 359 448 L 360 453 L 358 454 L 358 455 L 360 456 L 360 458 L 357 460 L 357 462 L 359 463 L 360 474 L 360 472 L 362 471 L 362 468 L 360 467 L 360 460 L 361 458 L 363 457 L 363 456 L 361 455 L 361 453 L 364 451 L 362 450 L 362 448 L 365 446 L 366 440 L 369 434 L 368 433 L 368 430 L 371 429 L 373 425 L 372 422 L 374 420 L 376 420 L 376 418 L 378 417 L 378 415 L 380 414 L 380 411 L 382 409 L 384 409 L 389 404 L 387 404 Z" fill="#204C83" fill-rule="evenodd"/><path d="M 394 395 L 393 396 L 390 396 L 387 399 L 391 399 L 392 401 L 394 399 Z" fill="#204C83" fill-rule="evenodd"/><path d="M 406 388 L 403 389 L 402 391 L 400 391 L 399 389 L 398 391 L 395 392 L 398 391 L 399 392 L 399 395 L 400 393 L 402 393 L 403 391 L 405 391 Z" fill="#204C83" fill-rule="evenodd"/><path d="M 440 375 L 438 375 L 437 373 L 436 376 L 433 376 L 432 374 L 431 376 L 428 375 L 407 384 L 407 386 L 411 386 L 412 387 L 412 385 L 415 383 L 418 383 L 419 384 L 422 382 L 430 380 L 431 378 L 434 379 L 436 376 L 438 376 L 439 378 Z" fill="#204C83" fill-rule="evenodd"/><path d="M 450 371 L 455 371 L 456 373 L 459 373 L 460 371 L 462 371 Z" fill="#204C83" fill-rule="evenodd"/><path d="M 421 331 L 365 352 L 326 389 L 299 454 L 295 503 L 318 562 L 371 617 L 431 642 L 498 640 L 547 615 L 580 573 L 556 561 L 509 602 L 470 614 L 426 609 L 393 593 L 351 549 L 336 510 L 332 459 L 346 416 L 387 374 L 440 357 L 468 359 L 505 373 L 537 398 L 554 425 L 580 418 L 585 428 L 580 433 L 575 428 L 577 440 L 549 450 L 558 490 L 550 542 L 583 568 L 596 532 L 598 493 L 618 487 L 613 450 L 588 394 L 576 402 L 548 368 L 518 347 L 472 331 Z M 598 488 L 601 487 L 602 488 L 602 491 L 599 492 L 598 491 Z M 586 484 L 589 485 L 589 490 L 588 491 L 585 490 L 585 485 Z M 597 478 L 600 477 L 601 480 L 598 481 Z" fill="#204C83" fill-rule="evenodd"/><path d="M 534 265 L 540 265 L 541 266 L 572 267 L 573 268 L 576 267 L 585 244 L 584 243 L 572 243 L 571 242 L 544 241 L 539 255 Z" fill="#204C83" fill-rule="evenodd"/><path d="M 377 212 L 377 278 L 370 289 L 676 306 L 677 278 L 668 279 L 666 275 L 666 256 L 676 255 L 676 230 L 671 227 L 647 228 L 639 225 L 633 227 L 609 223 L 602 225 L 592 222 L 586 224 L 559 220 L 557 222 L 526 218 L 520 220 L 510 217 L 503 219 L 493 216 L 487 218 L 438 213 L 412 214 L 384 210 Z M 598 281 L 603 281 L 606 283 L 606 291 L 602 296 L 600 296 L 599 294 L 596 294 L 593 291 L 593 287 L 595 286 Z M 573 279 L 580 279 L 582 281 L 582 284 L 584 285 L 584 287 L 582 288 L 583 291 L 579 294 L 575 294 L 574 292 L 571 291 L 570 282 Z M 632 237 L 643 237 L 650 240 L 654 243 L 661 251 L 664 258 L 664 264 L 666 265 L 666 271 L 664 272 L 664 277 L 661 284 L 652 294 L 645 297 L 637 297 L 630 295 L 625 292 L 617 283 L 613 274 L 613 258 L 616 250 L 623 242 Z M 512 233 L 515 231 L 523 231 L 524 232 L 540 232 L 541 233 L 556 233 L 557 234 L 572 234 L 573 235 L 599 236 L 603 239 L 603 276 L 601 278 L 567 278 L 566 277 L 550 277 L 549 276 L 533 276 L 532 275 L 518 275 L 517 274 L 514 274 L 511 269 L 511 236 Z" fill="#204C83" fill-rule="evenodd"/><path d="M 247 204 L 243 216 L 243 269 L 244 273 L 248 278 L 252 280 L 287 281 L 358 286 L 366 284 L 370 279 L 371 276 L 371 211 L 366 211 L 365 209 L 363 211 L 347 210 L 346 208 L 344 210 L 331 209 L 330 207 L 328 209 L 314 208 L 313 206 L 311 206 L 310 208 L 296 207 L 295 205 L 294 207 L 280 206 L 279 204 L 277 206 L 265 205 L 264 203 L 262 205 L 250 204 L 249 202 Z M 263 252 L 267 248 L 277 248 L 278 250 L 291 249 L 292 251 L 299 250 L 300 252 L 304 255 L 304 259 L 302 260 L 302 262 L 300 264 L 283 264 L 282 262 L 280 263 L 271 263 L 270 261 L 267 261 L 263 258 Z M 307 234 L 310 232 L 311 230 L 326 230 L 327 232 L 333 231 L 337 235 L 337 240 L 336 242 L 333 243 L 332 245 L 326 245 L 325 243 L 312 244 L 311 242 L 309 242 L 307 240 Z M 262 233 L 265 228 L 268 229 L 287 228 L 288 230 L 291 229 L 299 229 L 300 231 L 302 231 L 304 233 L 304 240 L 300 243 L 287 243 L 286 241 L 274 242 L 273 240 L 272 242 L 270 242 L 269 241 L 266 241 L 263 238 Z" fill="#204C83" fill-rule="evenodd"/><path d="M 204 200 L 204 205 L 205 206 L 204 209 L 206 210 L 205 213 L 209 218 L 209 220 L 207 221 L 209 222 L 209 224 L 207 225 L 210 227 L 209 230 L 211 231 L 211 242 L 209 243 L 209 246 L 204 250 L 204 252 L 198 257 L 196 261 L 193 262 L 193 263 L 191 264 L 189 267 L 187 267 L 186 269 L 188 271 L 190 271 L 191 270 L 194 270 L 197 266 L 203 266 L 209 264 L 222 265 L 224 267 L 224 271 L 227 271 L 228 274 L 230 275 L 230 279 L 230 264 L 229 263 L 229 255 L 230 254 L 230 250 L 229 249 L 229 217 L 230 215 L 226 215 L 225 212 L 224 214 L 222 214 L 211 205 L 210 200 Z" fill="#204C83" fill-rule="evenodd"/><path d="M 311 765 L 310 764 L 307 764 L 304 766 L 302 766 L 293 772 L 290 772 L 288 773 L 287 775 L 285 775 L 272 782 L 275 780 L 278 780 L 280 782 L 280 785 L 275 788 L 304 775 L 310 770 Z" fill="#198E8F" fill-rule="evenodd"/><path d="M 92 747 L 93 758 L 102 762 L 108 763 L 112 762 L 113 764 L 118 765 L 122 764 L 123 766 L 127 765 L 128 767 L 142 770 L 146 769 L 147 771 L 187 779 L 191 778 L 192 780 L 196 779 L 197 781 L 206 783 L 210 782 L 211 784 L 236 788 L 250 792 L 254 791 L 255 793 L 259 792 L 262 789 L 263 784 L 265 783 L 258 781 L 255 782 L 254 780 L 250 781 L 249 779 L 245 780 L 244 778 L 240 779 L 239 777 L 235 778 L 234 776 L 230 777 L 229 775 L 226 776 L 225 774 L 221 775 L 220 773 L 216 774 L 215 772 L 211 773 L 210 771 L 206 772 L 205 770 L 201 771 L 200 769 L 196 770 L 195 768 L 191 769 L 190 767 L 187 768 L 186 766 L 182 767 L 181 765 L 178 766 L 177 764 L 173 765 L 172 763 L 169 764 L 168 762 L 164 763 L 163 761 L 159 762 L 158 760 L 154 761 L 153 759 L 149 760 L 148 758 L 144 759 L 143 757 L 139 758 L 138 756 L 133 757 L 132 755 L 128 756 L 127 754 L 123 755 L 122 753 L 118 754 L 117 752 L 113 753 L 112 751 L 108 752 L 107 750 L 102 751 L 101 749 Z" fill="#198E8F" fill-rule="evenodd"/><path d="M 340 746 L 331 750 L 330 752 L 326 753 L 325 755 L 323 755 L 323 756 L 321 757 L 322 758 L 322 762 L 326 762 L 337 756 L 339 753 L 339 747 Z" fill="#198E8F" fill-rule="evenodd"/><path d="M 358 710 L 349 696 L 334 689 L 342 695 L 263 739 L 264 745 L 259 754 L 251 754 L 246 750 L 252 738 L 245 749 L 103 720 L 90 711 L 91 701 L 82 711 L 80 727 L 82 741 L 82 735 L 85 734 L 89 740 L 100 737 L 264 773 L 265 767 L 270 769 L 266 764 L 266 755 L 274 744 L 333 709 L 340 709 L 342 715 L 274 755 L 277 759 L 292 751 L 290 762 L 347 732 L 358 721 Z" fill="#198E8F" fill-rule="evenodd"/><path d="M 225 676 L 239 677 L 240 678 L 250 678 L 251 679 L 262 678 L 243 678 L 242 677 Z" fill="#198E8F" fill-rule="evenodd"/><path d="M 851 225 L 730 275 L 725 274 L 725 241 L 726 759 L 737 750 L 727 734 L 725 281 L 850 230 L 847 227 Z" fill="#198E8F" fill-rule="evenodd"/><path d="M 866 184 L 863 187 L 865 217 L 862 220 L 862 231 L 866 234 L 863 245 L 866 252 L 868 330 L 864 569 L 867 646 L 871 662 L 883 648 L 895 607 L 890 575 L 893 424 L 889 238 L 883 197 Z" fill="#198E8F" fill-rule="evenodd"/><path d="M 894 600 L 894 603 L 895 604 L 894 612 L 892 613 L 893 616 L 889 622 L 891 623 L 891 625 L 889 626 L 889 631 L 885 639 L 885 643 L 882 644 L 883 648 L 882 650 L 880 651 L 880 655 L 886 657 L 887 656 L 896 657 L 906 662 L 910 665 L 925 681 L 942 664 L 942 662 L 938 658 L 937 654 L 932 650 L 932 647 L 931 647 L 928 643 L 925 642 L 922 638 L 922 636 L 921 636 L 916 630 L 912 628 L 912 625 L 910 625 L 909 623 L 906 621 L 906 619 L 905 619 L 903 616 L 903 613 L 899 611 L 898 607 L 896 606 L 896 603 Z" fill="#45797E" fill-rule="evenodd"/><path d="M 449 564 L 460 567 L 459 565 L 456 566 L 455 564 L 452 563 Z" fill="#45797E" fill-rule="evenodd"/><path d="M 177 552 L 151 579 L 150 584 L 147 587 L 147 592 L 138 605 L 72 671 L 67 678 L 67 683 L 59 693 L 59 697 L 56 700 L 56 750 L 74 768 L 78 763 L 77 756 L 79 755 L 79 751 L 88 740 L 80 733 L 79 717 L 85 702 L 90 701 L 87 700 L 87 697 L 91 695 L 100 684 L 107 681 L 113 675 L 121 671 L 125 666 L 140 657 L 142 653 L 150 649 L 152 645 L 158 641 L 168 625 L 167 621 L 169 620 L 169 614 L 172 608 L 171 605 L 173 604 L 174 579 L 177 575 Z" fill="#45797E" fill-rule="evenodd"/><path d="M 430 535 L 437 541 L 437 543 L 440 543 L 443 545 L 446 549 L 450 549 L 456 552 L 458 555 L 461 554 L 469 557 L 470 559 L 473 558 L 474 560 L 475 559 L 478 559 L 479 561 L 480 561 L 481 559 L 487 560 L 488 559 L 498 558 L 499 561 L 501 558 L 506 558 L 498 558 L 497 556 L 496 558 L 493 558 L 491 557 L 490 555 L 489 557 L 487 557 L 485 554 L 484 555 L 480 555 L 477 553 L 473 552 L 471 549 L 465 546 L 463 546 L 462 544 L 460 544 L 459 542 L 457 542 L 456 540 L 453 540 L 451 538 L 451 536 L 449 536 L 442 531 L 439 532 L 438 534 L 435 534 L 434 533 L 433 535 Z" fill="#45797E" fill-rule="evenodd"/><path d="M 376 472 L 375 474 L 375 482 L 376 483 L 376 490 L 377 491 L 378 499 L 382 509 L 377 494 L 377 490 L 376 489 L 377 486 L 380 487 L 383 498 L 388 508 L 388 511 L 387 512 L 383 511 L 383 513 L 385 517 L 388 519 L 388 522 L 394 527 L 394 531 L 397 533 L 397 535 L 399 535 L 412 548 L 412 550 L 415 550 L 417 552 L 417 554 L 420 554 L 421 557 L 423 557 L 427 561 L 431 561 L 439 565 L 439 562 L 442 561 L 440 560 L 440 558 L 434 557 L 433 554 L 429 554 L 428 551 L 423 550 L 417 545 L 417 543 L 413 542 L 402 530 L 402 528 L 398 525 L 398 523 L 395 521 L 395 519 L 393 518 L 393 516 L 390 515 L 390 511 L 384 500 L 383 495 L 379 486 Z" fill="#45797E" fill-rule="evenodd"/><path d="M 361 460 L 361 463 L 360 464 L 357 463 L 358 465 L 358 482 L 357 483 L 359 484 L 359 489 L 358 491 L 360 492 L 360 495 L 359 496 L 361 497 L 361 500 L 360 501 L 361 501 L 363 504 L 363 507 L 362 508 L 364 514 L 367 516 L 366 519 L 368 519 L 369 521 L 369 519 L 371 518 L 370 516 L 371 513 L 368 512 L 367 506 L 368 505 L 367 502 L 365 501 L 363 495 L 363 491 L 364 490 L 362 489 L 362 485 L 363 484 L 361 483 L 361 475 L 362 472 L 360 472 L 358 470 L 358 466 L 359 465 L 361 465 L 362 467 Z" fill="#45797E" fill-rule="evenodd"/><path d="M 298 452 L 296 453 L 295 455 L 295 460 L 293 461 L 294 464 L 294 475 L 293 476 L 294 494 L 294 479 L 297 478 L 298 481 L 298 471 L 299 470 L 298 459 L 300 458 L 300 455 L 298 454 Z" fill="#45797E" fill-rule="evenodd"/><path d="M 581 418 L 583 420 L 588 431 L 596 454 L 596 458 L 597 459 L 598 467 L 599 468 L 599 473 L 600 474 L 600 480 L 601 481 L 601 492 L 614 487 L 617 487 L 617 483 L 617 486 L 616 487 L 613 487 L 604 491 L 601 490 L 601 480 L 600 479 L 599 467 L 596 457 L 596 453 L 589 433 L 583 420 Z" fill="#45797E" fill-rule="evenodd"/><path d="M 500 381 L 498 380 L 495 381 L 493 378 L 489 379 L 486 378 L 484 375 L 480 376 L 477 375 L 476 373 L 471 374 L 470 372 L 468 373 L 444 372 L 443 374 L 438 373 L 437 375 L 433 374 L 434 375 L 433 378 L 431 378 L 429 375 L 428 377 L 423 377 L 420 380 L 404 386 L 396 393 L 394 393 L 394 395 L 388 400 L 386 400 L 379 409 L 379 411 L 375 413 L 374 417 L 371 419 L 370 427 L 367 428 L 366 432 L 364 433 L 362 442 L 364 443 L 364 445 L 361 446 L 361 449 L 359 450 L 361 452 L 361 455 L 363 455 L 362 451 L 364 450 L 363 446 L 365 445 L 366 436 L 369 433 L 370 427 L 374 423 L 374 420 L 377 418 L 377 416 L 383 410 L 383 408 L 393 398 L 395 398 L 399 392 L 403 392 L 405 389 L 408 389 L 411 386 L 414 386 L 421 381 L 434 377 L 438 378 L 439 376 L 444 377 L 445 375 L 465 375 L 466 377 L 472 376 L 473 378 L 479 377 L 501 386 Z" fill="#45797E" fill-rule="evenodd"/><path d="M 220 265 L 217 266 L 213 264 L 212 265 L 203 265 L 201 267 L 197 267 L 196 269 L 189 272 L 201 284 L 201 296 L 203 292 L 205 291 L 208 287 L 213 285 L 216 282 L 220 280 L 223 280 L 228 282 L 227 272 L 224 272 L 223 271 L 223 267 Z" fill="#45797E" fill-rule="evenodd"/><path d="M 211 200 L 212 205 L 215 209 L 218 209 L 219 211 L 222 213 L 225 213 L 230 216 L 230 249 L 230 218 L 231 217 L 231 212 L 233 211 L 233 209 L 236 207 L 237 204 L 235 204 L 232 200 Z" fill="#45797E" fill-rule="evenodd"/><path d="M 845 144 L 850 148 L 858 158 L 858 161 L 861 165 L 863 174 L 865 175 L 865 180 L 867 185 L 871 186 L 873 188 L 873 190 L 878 191 L 880 196 L 883 197 L 884 199 L 884 193 L 886 190 L 885 189 L 885 174 L 883 169 L 883 165 L 881 164 L 880 158 L 878 156 L 878 154 L 874 148 L 874 146 L 872 144 Z" fill="#45797E" fill-rule="evenodd"/><path d="M 96 737 L 96 738 L 102 738 L 107 740 L 157 749 L 171 753 L 200 758 L 210 761 L 215 761 L 220 763 L 234 765 L 258 771 L 234 765 L 225 764 L 220 762 L 176 754 L 157 749 L 153 749 L 122 742 L 117 742 Z" fill="#1DAEB4" fill-rule="evenodd"/><path d="M 843 179 L 714 220 L 726 241 L 727 757 L 729 750 L 734 754 L 851 682 L 871 663 L 864 588 L 868 380 L 864 188 Z M 729 743 L 732 744 L 732 749 L 731 750 L 728 749 L 728 744 Z M 781 255 L 781 258 L 776 261 L 762 266 L 731 280 L 728 280 L 727 279 L 727 275 L 728 274 L 730 274 L 735 271 L 757 263 L 776 254 L 780 254 Z M 801 247 L 801 249 L 797 252 L 795 252 L 785 257 L 782 257 L 781 256 L 781 253 L 783 251 L 785 251 L 796 246 L 800 246 Z M 802 244 L 805 243 L 806 244 L 806 247 L 803 248 L 802 247 Z M 807 242 L 808 241 L 811 241 L 812 242 L 812 245 L 809 246 L 807 244 Z M 832 232 L 835 231 L 836 232 L 836 235 L 833 236 L 832 235 Z M 850 188 L 850 191 L 846 194 L 840 196 L 836 196 L 792 211 L 782 213 L 727 232 L 724 232 L 718 224 L 719 220 L 722 218 L 758 206 L 761 206 L 835 181 L 844 180 L 847 187 Z" fill="#1DAEB4" fill-rule="evenodd"/><path d="M 224 657 L 223 660 L 224 660 L 225 662 L 229 662 L 229 659 L 226 660 Z" fill="#6693A4" fill-rule="evenodd"/><path d="M 862 673 L 863 674 L 863 689 L 864 690 L 867 690 L 869 687 L 874 686 L 882 681 L 894 680 L 906 684 L 909 686 L 910 688 L 915 691 L 917 695 L 919 696 L 919 687 L 924 682 L 923 679 L 911 668 L 911 666 L 909 666 L 906 663 L 901 661 L 899 659 L 897 659 L 895 657 L 892 658 L 890 656 L 890 654 L 888 654 L 886 656 L 881 655 L 874 659 L 872 659 L 872 663 L 870 664 L 868 669 L 865 672 Z" fill="#6693A4" fill-rule="evenodd"/><path d="M 426 559 L 426 560 L 428 560 L 429 562 L 434 563 L 441 568 L 448 569 L 449 571 L 452 570 L 453 572 L 456 571 L 457 573 L 458 572 L 461 572 L 462 574 L 464 573 L 479 573 L 481 574 L 482 572 L 485 572 L 486 573 L 492 570 L 494 570 L 492 569 L 475 570 L 474 568 L 468 569 L 467 567 L 466 568 L 463 568 L 462 566 L 461 567 L 459 567 L 458 565 L 455 566 L 454 564 L 447 562 L 442 559 L 439 559 L 438 557 L 433 555 L 436 557 L 435 560 L 429 561 Z" fill="#6693A4" fill-rule="evenodd"/><path d="M 352 541 L 352 543 L 355 547 L 355 551 L 357 552 L 357 554 L 359 555 L 359 557 L 362 558 L 362 561 L 364 561 L 366 563 L 366 566 L 368 568 L 370 568 L 380 578 L 381 581 L 384 581 L 386 583 L 386 585 L 389 584 L 390 580 L 392 579 L 394 575 L 394 572 L 393 571 L 390 571 L 383 566 L 383 564 L 376 557 L 376 554 L 374 554 L 372 552 L 372 549 L 369 548 L 369 545 L 367 545 L 362 539 L 360 539 L 355 542 Z" fill="#6693A4" fill-rule="evenodd"/><path d="M 428 534 L 436 542 L 443 547 L 456 554 L 467 558 L 470 558 L 475 560 L 478 559 L 481 561 L 483 560 L 494 560 L 495 561 L 498 561 L 499 560 L 504 560 L 509 558 L 509 557 L 497 557 L 496 556 L 485 555 L 471 550 L 456 541 L 445 531 L 439 533 L 435 533 L 434 534 Z M 487 557 L 488 556 L 492 556 L 493 559 L 492 560 L 488 560 Z M 479 557 L 482 556 L 483 559 L 480 560 Z M 431 535 L 435 533 L 445 532 L 453 539 L 466 548 L 477 552 L 479 558 L 478 559 L 472 559 L 457 554 L 439 544 L 431 537 Z" fill="#6693A4" fill-rule="evenodd"/><path d="M 198 531 L 178 551 L 178 564 L 176 571 L 177 574 L 175 579 L 173 595 L 174 601 L 169 620 L 163 635 L 160 637 L 158 642 L 155 645 L 153 645 L 152 648 L 149 648 L 148 651 L 142 654 L 140 657 L 134 660 L 127 667 L 125 667 L 124 670 L 121 670 L 120 672 L 122 672 L 126 668 L 135 666 L 138 661 L 144 661 L 148 657 L 161 654 L 164 651 L 173 647 L 191 647 L 194 650 L 196 650 L 199 653 L 199 656 L 201 656 L 202 658 L 212 658 L 214 654 L 222 654 L 217 649 L 216 645 L 212 643 L 209 636 L 204 631 L 203 626 L 200 622 L 200 618 L 197 614 L 198 607 L 196 600 L 196 576 L 198 567 Z" fill="#6693A4" fill-rule="evenodd"/><path d="M 389 523 L 398 536 L 411 549 L 421 556 L 408 546 L 400 538 Z" fill="#6693A4" fill-rule="evenodd"/><path d="M 395 520 L 413 541 L 431 554 L 431 553 L 428 552 L 417 544 L 401 528 Z" fill="#6693A4" fill-rule="evenodd"/><path d="M 474 516 L 476 517 L 476 519 L 480 519 L 481 522 L 485 522 L 493 526 L 495 529 L 497 530 L 500 529 L 502 532 L 505 533 L 506 532 L 511 532 L 512 534 L 512 532 L 518 526 L 520 526 L 521 524 L 529 524 L 532 527 L 532 532 L 530 533 L 533 533 L 534 534 L 534 530 L 536 529 L 535 528 L 535 525 L 537 524 L 535 523 L 536 518 L 538 517 L 538 516 L 536 515 L 537 510 L 539 509 L 539 508 L 537 507 L 537 505 L 540 500 L 538 500 L 538 501 L 535 503 L 532 503 L 531 501 L 521 501 L 520 503 L 514 502 L 513 500 L 508 501 L 507 499 L 506 500 L 503 500 L 502 498 L 501 499 L 498 499 L 497 497 L 495 497 L 495 500 L 486 509 L 482 510 L 482 512 L 480 514 L 477 514 L 476 516 Z" fill="#6693A4" fill-rule="evenodd"/><path d="M 357 465 L 357 482 L 360 500 L 365 516 L 369 525 L 371 526 L 373 530 L 373 533 L 376 535 L 376 538 L 378 539 L 380 544 L 382 544 L 386 549 L 386 552 L 388 552 L 400 564 L 400 566 L 403 566 L 405 568 L 405 570 L 408 570 L 409 573 L 412 573 L 410 573 L 406 568 L 407 565 L 410 565 L 415 569 L 412 566 L 412 564 L 409 564 L 408 561 L 405 561 L 401 557 L 401 555 L 394 548 L 392 548 L 389 545 L 388 541 L 386 541 L 382 536 L 382 533 L 377 528 L 377 525 L 374 523 L 373 518 L 370 515 L 370 511 L 366 502 L 362 484 L 362 475 L 363 491 L 369 510 L 368 513 L 364 512 L 358 488 Z" fill="#6693A4" fill-rule="evenodd"/><path d="M 375 414 L 372 418 L 374 418 L 375 421 L 372 422 L 371 420 L 367 427 L 369 427 L 370 430 L 373 423 L 378 416 L 376 416 Z" fill="#6693A4" fill-rule="evenodd"/><path d="M 405 386 L 393 394 L 376 412 L 378 412 L 379 414 L 381 412 L 378 411 L 379 408 L 381 408 L 382 410 L 395 397 L 403 391 L 407 389 L 405 388 Z" fill="#6693A4" fill-rule="evenodd"/><path d="M 407 385 L 409 386 L 409 388 L 421 382 L 444 376 L 466 376 L 481 379 L 492 383 L 501 388 L 504 388 L 506 391 L 510 392 L 514 397 L 519 399 L 520 402 L 528 408 L 529 412 L 531 412 L 536 419 L 536 422 L 539 424 L 540 429 L 543 432 L 545 430 L 546 425 L 543 423 L 543 420 L 539 417 L 537 411 L 533 408 L 533 406 L 530 403 L 527 402 L 527 400 L 525 398 L 523 398 L 518 392 L 516 392 L 515 390 L 513 390 L 509 386 L 506 386 L 502 382 L 499 382 L 497 380 L 487 376 L 468 372 L 445 372 L 439 373 L 443 373 L 444 374 L 443 377 L 430 379 L 416 384 L 415 381 L 422 378 Z M 444 373 L 445 372 L 468 372 L 469 373 L 474 373 L 475 374 L 482 375 L 483 378 L 480 379 L 479 378 L 469 377 L 468 376 L 445 376 Z" fill="#6693A4" fill-rule="evenodd"/><path d="M 229 272 L 229 280 L 228 281 L 224 282 L 223 280 L 216 283 L 213 286 L 208 288 L 206 291 L 204 292 L 201 297 L 201 348 L 201 345 L 202 344 L 201 343 L 202 331 L 204 328 L 205 320 L 207 319 L 208 310 L 210 308 L 210 306 L 216 296 L 225 287 L 228 287 L 229 288 L 229 286 L 232 285 L 230 285 L 228 283 L 229 280 Z" fill="#6693A4" fill-rule="evenodd"/><path d="M 234 201 L 235 203 L 237 204 L 237 206 L 238 202 L 240 201 Z" fill="#6693A4" fill-rule="evenodd"/><path d="M 774 130 L 776 131 L 782 131 L 786 133 L 790 133 L 796 135 L 800 135 L 803 137 L 812 139 L 818 143 L 823 144 L 830 149 L 831 152 L 835 154 L 836 156 L 839 158 L 839 160 L 843 165 L 843 168 L 845 170 L 845 173 L 842 174 L 848 178 L 849 176 L 851 176 L 852 179 L 850 180 L 853 183 L 856 184 L 857 188 L 858 185 L 861 185 L 865 187 L 865 183 L 866 182 L 865 181 L 865 177 L 864 175 L 862 174 L 861 167 L 857 161 L 857 158 L 849 148 L 844 144 L 832 144 L 824 136 L 820 134 L 810 134 L 798 130 Z" fill="#6693A4" fill-rule="evenodd"/><path d="M 86 703 L 90 704 L 91 711 L 95 716 L 103 719 L 245 749 L 250 738 L 257 736 L 264 740 L 279 727 L 343 694 L 294 669 L 278 670 L 278 673 L 272 678 L 246 688 L 232 690 L 209 688 L 200 684 L 193 677 L 191 672 L 193 658 L 203 657 L 226 660 L 227 662 L 228 660 L 224 660 L 224 656 L 216 648 L 210 649 L 213 652 L 207 655 L 205 649 L 201 651 L 200 648 L 182 645 L 172 649 L 168 648 L 156 656 L 145 657 L 128 669 L 124 669 L 123 672 L 119 672 L 118 675 L 96 688 Z M 179 685 L 182 684 L 183 687 L 186 688 L 194 694 L 199 695 L 202 697 L 211 698 L 212 699 L 235 699 L 236 698 L 250 697 L 251 696 L 262 694 L 278 688 L 280 688 L 281 691 L 271 696 L 251 702 L 239 703 L 238 704 L 227 704 L 226 705 L 214 705 L 213 704 L 206 704 L 205 703 L 198 702 L 191 699 L 181 690 L 181 688 L 179 687 Z" fill="#58C09A" fill-rule="evenodd"/><path d="M 846 176 L 849 180 L 852 181 L 852 183 L 855 185 L 857 188 L 857 190 L 858 184 L 856 181 L 854 181 L 852 177 Z" fill="#58C09A" fill-rule="evenodd"/><path d="M 860 672 L 853 680 L 844 686 L 841 687 L 836 691 L 828 695 L 807 709 L 799 713 L 794 717 L 791 718 L 786 722 L 778 726 L 773 730 L 765 734 L 760 738 L 735 753 L 765 735 L 770 731 L 783 724 L 796 715 L 809 708 L 843 686 L 846 685 L 855 679 L 859 675 Z" fill="#29DCC8" fill-rule="evenodd"/><path d="M 598 283 L 596 285 L 596 291 L 598 293 L 603 293 L 605 291 L 605 286 L 604 284 L 602 283 Z" fill="#29DCC8" fill-rule="evenodd"/><path d="M 575 281 L 573 282 L 572 284 L 572 289 L 573 291 L 578 292 L 581 290 L 581 283 L 578 281 Z" fill="#29DCC8" fill-rule="evenodd"/><path d="M 593 257 L 592 258 L 592 268 L 594 270 L 597 270 L 599 268 L 599 259 L 597 257 Z" fill="#29DCC8" fill-rule="evenodd"/><path d="M 265 253 L 265 258 L 267 260 L 299 262 L 301 261 L 302 259 L 302 255 L 298 252 L 268 250 L 266 251 Z" fill="#29DCC8" fill-rule="evenodd"/><path d="M 309 235 L 310 240 L 314 242 L 329 242 L 330 243 L 333 242 L 335 239 L 335 236 L 334 234 L 332 233 L 311 232 Z" fill="#29DCC8" fill-rule="evenodd"/><path d="M 265 231 L 265 236 L 266 238 L 268 239 L 299 241 L 301 240 L 302 238 L 301 233 L 298 231 L 284 231 L 283 230 L 266 230 Z" fill="#29DCC8" fill-rule="evenodd"/><path d="M 849 181 L 845 179 L 842 179 L 841 181 L 838 181 L 837 180 L 834 183 L 828 185 L 825 185 L 824 184 L 821 185 L 819 188 L 816 188 L 806 192 L 803 192 L 802 191 L 796 193 L 794 196 L 791 196 L 790 195 L 781 198 L 779 201 L 776 201 L 775 200 L 773 203 L 764 206 L 761 206 L 760 205 L 759 207 L 748 211 L 745 211 L 744 210 L 741 211 L 739 214 L 736 214 L 735 213 L 733 216 L 724 219 L 721 219 L 720 218 L 720 220 L 717 221 L 722 227 L 724 231 L 727 231 L 782 212 L 792 210 L 826 198 L 829 198 L 836 195 L 840 195 L 846 193 L 849 191 L 849 188 L 848 187 L 848 182 Z" fill="#29DCC8" fill-rule="evenodd"/><path d="M 814 748 L 801 756 L 799 756 L 794 760 L 779 768 L 759 781 L 733 794 L 749 787 Z" fill="#8FA7B2" fill-rule="evenodd"/><path d="M 864 689 L 867 689 L 868 691 L 878 691 L 879 692 L 883 692 L 884 693 L 888 693 L 889 694 L 900 696 L 910 701 L 915 706 L 915 700 L 918 697 L 915 692 L 910 689 L 909 687 L 903 683 L 900 683 L 896 681 L 882 682 L 874 687 Z" fill="#8FA7B2" fill-rule="evenodd"/><path d="M 452 610 L 454 610 L 455 612 L 457 612 L 458 610 L 463 610 L 464 612 L 466 612 L 466 611 L 468 610 Z" fill="#8FA7B2" fill-rule="evenodd"/><path d="M 382 565 L 385 570 L 385 575 L 391 575 L 391 571 L 389 571 L 384 565 Z" fill="#8FA7B2" fill-rule="evenodd"/><path d="M 547 552 L 544 552 L 543 548 L 542 551 L 536 557 L 534 557 L 534 559 L 528 565 L 526 565 L 526 567 L 518 573 L 515 573 L 514 576 L 498 583 L 494 582 L 491 585 L 485 584 L 484 586 L 478 587 L 477 585 L 476 587 L 466 587 L 465 585 L 464 587 L 441 582 L 439 579 L 436 580 L 434 577 L 431 578 L 417 570 L 416 567 L 413 568 L 411 565 L 407 564 L 405 560 L 403 563 L 401 563 L 399 565 L 408 569 L 412 573 L 412 575 L 414 575 L 415 577 L 419 577 L 428 582 L 430 585 L 431 584 L 436 585 L 440 589 L 454 591 L 455 593 L 456 592 L 478 593 L 499 589 L 517 581 L 525 576 L 531 570 L 535 569 L 537 567 L 537 564 L 540 561 L 542 561 L 542 558 L 544 556 L 543 553 Z M 402 564 L 405 563 L 406 566 L 403 567 Z" fill="#8FA7B2" fill-rule="evenodd"/><path d="M 535 527 L 533 527 L 527 522 L 527 519 L 526 519 L 525 522 L 521 522 L 520 521 L 520 524 L 518 525 L 511 533 L 518 525 L 523 522 L 529 523 L 530 524 L 530 527 Z" fill="#8FA7B2" fill-rule="evenodd"/><path d="M 225 288 L 209 310 L 204 324 L 201 347 L 201 519 L 198 530 L 196 580 L 198 591 L 196 597 L 201 625 L 211 641 L 225 656 L 224 661 L 229 661 L 229 640 L 226 644 L 223 639 L 216 595 L 218 521 L 215 438 L 216 366 L 219 323 L 225 299 L 228 298 L 229 302 L 229 289 Z" fill="#8FA7B2" fill-rule="evenodd"/><path d="M 276 172 L 296 162 L 414 134 L 448 130 L 634 132 L 778 145 L 820 156 L 847 178 L 839 159 L 830 150 L 800 136 L 760 128 L 675 125 L 645 120 L 432 120 L 389 126 L 298 151 Z" fill="#8FA7B2" fill-rule="evenodd"/><path d="M 668 256 L 667 258 L 667 275 L 669 277 L 681 277 L 682 276 L 682 258 L 676 256 Z" fill="#F8CF2C" fill-rule="evenodd"/><path d="M 378 773 L 369 773 L 368 772 L 360 772 L 359 771 L 353 771 L 350 773 L 346 773 L 344 776 L 330 783 L 327 782 L 323 784 L 322 787 L 319 786 L 317 789 L 307 794 L 304 793 L 303 796 L 301 796 L 296 799 L 293 798 L 292 801 L 290 801 L 287 803 L 284 802 L 284 804 L 293 800 L 297 800 L 298 803 L 295 806 L 291 807 L 291 809 L 294 808 L 296 805 L 299 806 L 304 804 L 305 801 L 308 801 L 309 802 L 311 799 L 314 799 L 315 800 L 317 797 L 320 798 L 323 797 L 324 794 L 327 794 L 328 795 L 330 792 L 333 793 L 334 790 L 337 790 L 338 791 L 339 788 L 345 787 L 346 788 L 346 786 L 349 785 L 348 782 L 350 781 L 351 778 L 353 776 L 359 774 L 360 772 Z" fill="#A3BDCA" fill-rule="evenodd"/><path d="M 832 732 L 830 731 L 829 734 L 821 737 L 814 736 L 813 734 L 808 736 L 808 737 L 805 738 L 804 740 L 800 741 L 799 743 L 796 742 L 796 744 L 794 745 L 792 748 L 789 748 L 788 747 L 788 750 L 787 751 L 784 751 L 783 753 L 779 754 L 778 756 L 775 755 L 773 759 L 771 759 L 770 761 L 766 762 L 763 764 L 762 766 L 758 767 L 757 769 L 754 768 L 753 771 L 749 773 L 748 775 L 744 776 L 743 778 L 741 778 L 740 780 L 736 781 L 734 784 L 731 784 L 730 783 L 730 785 L 728 786 L 728 789 L 726 790 L 725 795 L 723 796 L 723 799 L 743 790 L 743 789 L 747 786 L 751 786 L 755 784 L 756 782 L 760 781 L 761 779 L 765 778 L 766 776 L 768 776 L 769 773 L 775 772 L 776 770 L 780 769 L 781 767 L 785 766 L 786 764 L 790 763 L 791 761 L 795 760 L 796 758 L 800 757 L 801 755 L 807 753 L 808 751 L 812 750 L 813 748 L 817 747 L 818 745 L 820 745 L 827 741 L 830 737 L 832 736 L 830 735 L 830 733 Z" fill="#A3BDCA" fill-rule="evenodd"/><path d="M 881 693 L 886 692 L 887 694 L 891 693 L 892 695 L 895 694 L 896 696 L 901 697 L 906 700 L 908 699 L 908 698 L 904 696 L 894 694 L 892 692 L 883 692 L 882 691 Z" fill="#A3BDCA" fill-rule="evenodd"/><path d="M 435 609 L 438 607 L 440 607 L 441 609 L 444 609 L 445 611 L 452 609 L 457 609 L 458 612 L 463 612 L 464 609 L 474 610 L 475 611 L 476 609 L 479 609 L 480 610 L 481 608 L 496 604 L 504 600 L 499 602 L 495 602 L 494 601 L 493 603 L 489 603 L 488 602 L 487 605 L 482 604 L 481 606 L 466 606 L 465 603 L 465 605 L 462 606 L 461 604 L 457 605 L 456 602 L 455 603 L 452 603 L 451 601 L 448 602 L 447 600 L 446 601 L 443 601 L 439 599 L 438 605 L 436 606 Z" fill="#A3BDCA" fill-rule="evenodd"/><path d="M 544 549 L 538 554 L 539 553 L 542 554 L 542 557 L 540 559 L 542 559 L 542 556 L 545 555 L 545 550 Z" fill="#A3BDCA" fill-rule="evenodd"/><path d="M 723 485 L 723 634 L 723 598 L 725 597 L 725 548 L 723 547 Z" fill="#A3BDCA" fill-rule="evenodd"/><path d="M 396 414 L 396 418 L 392 425 L 391 431 L 389 432 L 392 432 L 408 440 L 410 443 L 414 438 L 415 434 L 405 422 L 405 420 L 403 420 L 399 416 L 397 416 Z" fill="#A3BDCA" fill-rule="evenodd"/><path d="M 450 388 L 438 388 L 437 389 L 427 391 L 418 396 L 414 396 L 414 398 L 409 401 L 408 404 L 415 412 L 415 415 L 417 415 L 421 419 L 421 422 L 423 422 L 426 425 L 429 422 L 432 422 L 432 420 L 435 418 L 437 415 L 440 416 L 441 413 L 444 413 L 444 411 L 451 406 L 453 401 L 453 393 Z" fill="#A3BDCA" fill-rule="evenodd"/><path d="M 697 308 L 697 759 L 691 771 L 678 779 L 688 775 L 697 760 Z" fill="#A3BDCA" fill-rule="evenodd"/><path d="M 228 297 L 224 304 L 218 335 L 217 412 L 215 417 L 217 419 L 215 430 L 217 433 L 216 504 L 218 514 L 217 603 L 226 645 L 229 642 Z" fill="#A3BDCA" fill-rule="evenodd"/><path d="M 713 220 L 714 224 L 717 227 L 717 230 L 714 231 L 709 225 L 709 224 L 715 237 L 715 343 L 715 240 L 719 238 L 722 239 L 722 275 L 722 246 L 724 245 L 724 242 L 722 241 L 721 236 L 723 235 L 722 232 L 720 231 L 720 228 L 717 227 L 717 224 Z" fill="#A3BDCA" fill-rule="evenodd"/><path d="M 838 173 L 838 175 L 835 176 L 836 177 L 839 177 L 840 179 L 841 179 L 841 176 L 842 175 L 839 176 Z" fill="#A3BDCA" fill-rule="evenodd"/><path d="M 264 189 L 272 187 L 272 183 L 406 149 L 466 142 L 679 149 L 777 157 L 836 172 L 815 155 L 763 144 L 646 133 L 456 130 L 382 141 L 296 163 L 275 173 L 264 184 Z" fill="#A3BDCA" fill-rule="evenodd"/><path d="M 797 780 L 787 785 L 782 785 L 781 787 L 779 787 L 776 785 L 777 788 L 775 790 L 771 791 L 774 792 L 777 788 L 780 788 L 781 789 L 781 787 L 784 785 L 787 785 L 788 786 L 791 784 L 793 784 L 793 782 L 794 781 L 797 782 Z" fill="#B8D0DE" fill-rule="evenodd"/><path d="M 789 766 L 733 796 L 690 809 L 663 805 L 660 808 L 652 804 L 651 807 L 639 806 L 629 797 L 617 794 L 613 797 L 596 792 L 592 795 L 563 792 L 562 789 L 561 792 L 540 787 L 537 790 L 530 786 L 527 789 L 521 785 L 517 788 L 510 784 L 509 787 L 501 783 L 500 786 L 490 782 L 481 784 L 480 781 L 476 784 L 459 779 L 458 782 L 449 778 L 440 780 L 439 777 L 436 780 L 428 776 L 425 779 L 381 775 L 364 770 L 332 792 L 362 780 L 704 813 L 764 796 L 752 798 L 751 793 L 760 791 L 770 777 Z" fill="#B8D0DE" fill-rule="evenodd"/><path d="M 76 771 L 79 778 L 82 777 L 86 781 L 95 781 L 98 784 L 102 783 L 103 785 L 107 784 L 108 786 L 112 785 L 113 787 L 117 786 L 123 789 L 128 788 L 129 790 L 133 789 L 134 791 L 138 790 L 144 793 L 149 792 L 150 794 L 164 795 L 165 797 L 169 796 L 175 799 L 181 798 L 185 801 L 190 800 L 191 802 L 206 803 L 212 806 L 219 805 L 222 808 L 235 808 L 239 811 L 255 812 L 256 814 L 258 812 L 270 812 L 272 814 L 277 811 L 285 811 L 286 809 L 301 805 L 303 802 L 306 803 L 307 801 L 312 801 L 330 794 L 313 800 L 304 800 L 303 795 L 302 798 L 296 798 L 295 801 L 291 799 L 287 804 L 279 804 L 279 808 L 275 807 L 265 810 L 257 806 L 239 805 L 236 802 L 230 803 L 215 800 L 212 797 L 208 798 L 207 796 L 203 797 L 197 794 L 190 795 L 182 791 L 177 793 L 175 791 L 147 787 L 138 782 L 134 783 L 133 781 L 129 782 L 123 779 L 116 780 L 93 776 L 83 771 L 78 765 Z M 298 800 L 301 799 L 302 802 L 299 803 Z" fill="#B8D0DE" fill-rule="evenodd"/><path d="M 799 760 L 797 759 L 796 762 L 792 762 L 791 765 L 792 764 L 795 765 L 795 763 L 796 762 L 799 762 Z" fill="#B8D0DE" fill-rule="evenodd"/><path d="M 819 746 L 818 748 L 814 749 L 813 751 L 809 752 L 809 754 L 812 753 L 814 750 L 819 749 Z" fill="#B8D0DE" fill-rule="evenodd"/><path d="M 353 732 L 360 740 L 363 751 L 384 756 L 389 754 L 394 757 L 400 755 L 415 759 L 432 758 L 447 762 L 453 760 L 470 764 L 476 762 L 531 767 L 535 770 L 541 768 L 558 772 L 565 770 L 570 773 L 577 771 L 598 773 L 602 776 L 621 775 L 625 778 L 643 777 L 592 773 L 591 769 L 665 773 L 535 762 L 559 765 L 558 768 L 546 769 L 532 767 L 528 761 L 379 748 L 374 726 L 360 707 L 361 721 L 357 730 Z M 575 767 L 576 766 L 580 766 L 581 769 L 579 771 L 576 771 L 575 770 Z M 566 766 L 569 765 L 570 768 L 567 769 Z M 527 763 L 530 762 L 531 763 L 531 766 L 528 767 L 527 766 Z M 515 762 L 516 761 L 519 761 L 520 762 L 520 765 L 519 766 L 516 766 L 515 765 Z M 511 762 L 514 761 L 515 764 L 512 765 Z M 505 761 L 506 760 L 509 760 L 510 761 L 510 764 L 509 765 L 506 765 L 505 764 Z M 451 756 L 452 755 L 458 755 L 459 756 L 479 757 L 482 759 L 482 762 L 479 763 L 478 762 L 457 761 L 456 760 L 452 760 L 451 759 Z M 445 756 L 446 755 L 449 755 L 450 758 L 449 759 L 446 759 Z M 415 753 L 416 752 L 431 753 L 432 754 L 432 757 L 431 758 L 416 757 L 415 756 Z M 399 752 L 400 751 L 408 751 L 411 753 L 411 755 L 410 756 L 403 756 L 400 755 Z M 368 727 L 370 727 L 371 730 L 373 731 L 373 735 L 372 736 L 369 736 L 367 732 L 367 728 Z M 368 724 L 371 723 L 372 726 L 369 727 Z M 363 720 L 364 719 L 367 719 L 368 722 L 367 723 L 364 723 Z" fill="#B8D0DE" fill-rule="evenodd"/><path d="M 889 697 L 892 697 L 901 700 L 901 698 L 895 696 L 892 696 L 891 695 L 891 696 Z" fill="#B8D0DE" fill-rule="evenodd"/><path d="M 876 695 L 873 694 L 872 692 L 871 694 L 869 694 L 868 693 L 864 693 L 863 691 L 863 695 L 859 703 L 851 710 L 841 716 L 839 725 L 831 732 L 829 735 L 829 740 L 828 741 L 836 735 L 839 736 L 844 732 L 844 730 L 847 726 L 848 712 L 854 708 L 860 702 L 863 697 L 866 697 L 867 694 L 871 694 L 872 695 L 875 694 Z" fill="#B8D0DE" fill-rule="evenodd"/><path d="M 282 443 L 281 459 L 280 460 L 280 491 L 281 492 L 282 508 L 286 523 L 286 527 L 293 549 L 302 569 L 303 569 L 293 548 L 282 508 L 282 503 L 285 502 L 289 520 L 285 499 L 287 498 L 285 497 L 284 502 L 281 501 L 281 495 L 284 494 L 284 490 L 286 489 L 284 488 L 284 486 L 283 490 L 280 489 L 280 483 L 283 482 L 283 461 L 284 460 L 284 453 L 281 452 L 281 449 L 284 448 L 285 451 L 287 449 L 282 446 Z" fill="#B8D0DE" fill-rule="evenodd"/><path d="M 624 440 L 626 450 L 627 451 L 627 456 L 626 457 L 628 458 L 630 467 L 628 468 L 629 468 L 631 471 L 631 474 L 629 475 L 631 476 L 631 478 L 630 464 L 629 463 L 629 459 L 628 458 Z" fill="#B8D0DE" fill-rule="evenodd"/><path d="M 344 341 L 334 348 L 319 363 L 301 388 L 292 407 L 285 428 L 283 441 L 285 441 L 286 444 L 286 441 L 283 440 L 283 437 L 286 436 L 287 438 L 288 432 L 286 432 L 285 429 L 286 428 L 289 429 L 289 427 L 292 425 L 291 424 L 291 420 L 295 411 L 295 408 L 300 399 L 300 397 L 306 387 L 309 386 L 309 382 L 319 368 L 322 368 L 322 365 L 326 360 L 329 358 L 327 357 L 327 355 L 330 354 L 331 356 L 331 355 L 339 348 L 338 345 L 339 344 L 342 345 L 342 342 Z M 318 365 L 321 364 L 322 367 L 319 368 Z" fill="#B8D0DE" fill-rule="evenodd"/><path d="M 412 310 L 405 312 L 401 312 L 398 314 L 395 314 L 386 317 L 388 318 L 388 321 L 388 317 L 389 316 L 392 316 L 393 317 L 397 315 L 402 315 L 403 316 L 404 313 L 410 312 L 410 311 Z" fill="#B8D0DE" fill-rule="evenodd"/><path d="M 415 309 L 469 308 L 513 318 L 580 357 L 569 353 L 601 390 L 623 438 L 607 397 L 613 400 L 635 459 L 639 524 L 626 580 L 616 595 L 630 542 L 632 480 L 627 549 L 607 596 L 566 639 L 521 660 L 455 665 L 401 651 L 360 628 L 331 600 L 344 614 L 341 620 L 304 572 L 348 628 L 345 617 L 358 626 L 351 629 L 401 661 L 458 675 L 531 668 L 587 637 L 623 588 L 639 528 L 630 439 L 600 379 L 552 335 L 485 309 Z M 395 651 L 398 650 L 399 653 L 396 654 Z M 612 587 L 615 586 L 616 589 L 613 590 Z M 599 385 L 602 384 L 604 386 L 604 388 L 606 389 L 606 391 L 603 392 L 602 389 L 599 387 Z M 584 363 L 586 363 L 600 380 L 600 383 L 599 384 L 597 384 L 594 381 L 588 372 L 583 367 L 583 364 Z" fill="#B8D0DE" fill-rule="evenodd"/><path d="M 233 287 L 230 288 L 230 330 L 232 331 L 230 336 L 232 342 L 230 353 L 232 354 L 230 361 L 232 362 L 232 376 L 230 377 L 232 379 L 232 432 L 230 433 L 232 434 L 232 640 L 230 643 L 232 645 L 231 660 L 242 663 L 242 649 L 240 648 L 242 571 L 239 570 L 242 562 L 240 561 L 242 540 L 239 533 L 242 527 L 240 519 L 242 516 L 240 514 L 242 480 L 239 479 L 239 472 L 242 471 L 239 470 L 239 466 L 242 465 L 239 464 L 240 288 Z" fill="#B8D0DE" fill-rule="evenodd"/><path d="M 697 215 L 716 234 L 715 762 L 702 767 L 701 307 L 696 312 L 698 757 L 684 780 L 724 758 L 721 230 Z M 717 232 L 720 231 L 721 234 L 718 235 Z" fill="#B8D0DE" fill-rule="evenodd"/><path d="M 734 201 L 735 204 L 739 203 L 737 202 L 737 200 Z" fill="#B8D0DE" fill-rule="evenodd"/><path d="M 752 199 L 750 198 L 750 196 L 746 198 L 743 198 L 744 201 L 749 199 Z" fill="#B8D0DE" fill-rule="evenodd"/><path d="M 842 177 L 840 176 L 840 174 L 831 171 L 830 174 L 821 175 L 812 179 L 808 179 L 807 177 L 803 179 L 788 183 L 777 188 L 774 188 L 759 193 L 760 196 L 791 185 L 794 185 L 816 177 L 820 177 L 825 175 L 833 175 L 836 178 L 836 180 L 839 179 L 840 177 Z" fill="#B8D0DE" fill-rule="evenodd"/><path d="M 250 197 L 318 192 L 280 186 L 397 164 L 308 187 L 442 158 L 804 174 L 441 157 L 448 152 L 821 168 L 690 150 L 450 143 L 305 173 Z M 266 192 L 267 189 L 269 188 L 272 189 L 271 192 L 269 193 Z M 280 187 L 279 190 L 273 191 L 272 190 L 273 187 L 276 187 L 277 186 Z M 434 156 L 435 155 L 438 155 L 439 158 L 438 159 L 435 159 Z M 431 158 L 430 161 L 426 161 L 422 163 L 418 163 L 417 164 L 409 165 L 408 166 L 403 166 L 402 167 L 398 167 L 397 166 L 398 161 L 401 159 L 405 159 L 406 161 L 408 161 L 409 158 L 412 158 L 413 157 L 417 157 L 418 159 L 420 159 L 420 157 L 424 155 L 428 155 L 429 157 Z" fill="#B8D0DE" fill-rule="evenodd"/><path d="M 681 812 L 683 813 L 703 813 L 705 812 L 700 812 L 699 813 L 696 813 L 695 812 Z" fill="#C9DEE9" fill-rule="evenodd"/><path d="M 557 799 L 558 800 L 568 800 L 569 801 L 578 801 L 579 802 L 588 802 L 589 803 L 602 804 L 600 803 L 590 803 L 589 802 L 581 802 L 580 801 L 571 801 L 570 800 Z" fill="#C9DEE9" fill-rule="evenodd"/><path d="M 159 795 L 160 796 L 165 796 L 166 797 L 170 797 L 171 798 L 175 798 L 176 799 L 185 800 L 186 801 L 191 801 L 192 802 L 192 801 L 187 801 L 186 800 L 171 798 L 170 797 Z" fill="#C9DEE9" fill-rule="evenodd"/><path d="M 479 791 L 482 792 L 491 792 L 492 793 L 501 793 L 502 794 L 510 794 L 511 795 L 529 796 L 530 797 L 539 797 L 540 798 L 550 798 L 552 799 L 551 798 L 541 798 L 540 797 L 531 797 L 530 796 L 522 796 L 521 795 L 513 795 L 512 794 L 503 794 L 502 793 Z" fill="#C9DEE9" fill-rule="evenodd"/><path d="M 399 783 L 401 784 L 421 785 L 422 786 L 441 787 L 442 788 L 461 789 L 462 790 L 471 790 L 473 791 L 473 790 L 452 789 L 451 788 L 442 788 L 441 787 L 432 787 L 431 786 L 412 785 L 411 784 Z" fill="#C9DEE9" fill-rule="evenodd"/><path d="M 256 738 L 255 740 L 252 739 L 251 743 L 248 744 L 247 746 L 248 749 L 255 751 L 256 753 L 256 752 L 259 750 L 258 747 L 261 742 L 260 739 L 257 740 Z" fill="#C9DEE9" fill-rule="evenodd"/><path d="M 368 715 L 368 719 L 367 720 L 363 720 L 362 718 L 359 718 L 360 723 L 359 725 L 357 726 L 358 729 L 352 733 L 352 734 L 355 735 L 355 733 L 358 732 L 359 733 L 359 737 L 356 738 L 358 738 L 359 740 L 359 733 L 358 732 L 358 726 L 359 725 L 368 728 L 368 735 L 374 735 L 375 736 L 375 739 L 375 737 L 377 736 L 374 735 L 374 733 L 376 732 L 374 732 L 373 729 L 375 728 L 372 727 L 372 724 L 373 723 L 372 721 L 370 720 L 370 718 L 368 717 Z" fill="#C9DEE9" fill-rule="evenodd"/><path d="M 688 770 L 681 766 L 680 760 L 684 758 L 677 751 L 677 699 L 677 757 L 674 766 L 664 774 L 611 768 L 604 770 L 600 767 L 590 769 L 588 766 L 582 768 L 576 765 L 570 767 L 565 764 L 559 766 L 554 763 L 547 765 L 543 762 L 535 764 L 531 761 L 522 763 L 510 759 L 499 761 L 498 758 L 490 760 L 487 757 L 480 759 L 454 754 L 446 756 L 442 753 L 434 755 L 430 752 L 422 754 L 419 751 L 410 753 L 409 750 L 402 752 L 387 748 L 381 750 L 376 744 L 376 754 L 383 752 L 385 756 L 394 754 L 395 757 L 398 754 L 405 758 L 406 755 L 413 755 L 416 759 L 423 756 L 427 760 L 436 758 L 437 761 L 438 758 L 447 758 L 448 762 L 449 759 L 456 759 L 460 763 L 461 760 L 470 761 L 471 764 L 474 761 L 481 765 L 482 762 L 491 763 L 492 766 L 495 762 L 496 765 L 501 763 L 503 767 L 504 764 L 512 764 L 514 768 L 515 765 L 524 766 L 525 769 L 526 766 L 534 766 L 536 770 L 537 767 L 545 767 L 547 771 L 548 768 L 558 768 L 559 772 L 562 769 L 570 770 L 571 773 L 572 770 L 577 772 L 583 769 L 586 773 L 591 771 L 593 775 L 594 772 L 602 773 L 603 776 L 604 773 L 613 774 L 614 777 L 616 774 L 625 775 L 626 778 L 630 775 L 637 779 L 638 776 L 648 777 L 649 780 L 653 777 L 660 781 L 661 778 L 677 781 Z" fill="#C9DEE9" fill-rule="evenodd"/><path d="M 915 708 L 909 702 L 897 697 L 894 698 L 893 696 L 863 692 L 860 702 L 855 704 L 856 707 L 850 711 L 847 710 L 843 718 L 840 716 L 840 719 L 844 718 L 847 720 L 847 728 L 843 734 L 834 737 L 768 778 L 733 796 L 750 790 L 753 786 L 761 783 L 762 786 L 760 790 L 752 792 L 752 794 L 747 797 L 750 798 L 749 801 L 709 812 L 736 806 L 776 791 L 862 750 L 906 723 L 913 716 Z" fill="#C9DEE9" fill-rule="evenodd"/><path d="M 470 676 L 483 676 L 476 676 L 475 674 L 472 674 L 472 675 Z" fill="#C9DEE9" fill-rule="evenodd"/><path d="M 403 660 L 403 662 L 417 667 L 417 665 L 415 665 L 414 663 L 411 663 Z" fill="#C9DEE9" fill-rule="evenodd"/><path d="M 421 660 L 423 660 L 424 663 L 438 663 L 441 662 L 439 662 L 438 660 L 435 662 L 430 662 L 429 661 L 429 658 L 428 661 L 426 661 L 424 658 Z" fill="#C9DEE9" fill-rule="evenodd"/><path d="M 725 631 L 725 658 L 724 659 L 725 665 L 724 666 L 725 667 L 725 671 L 724 672 L 724 751 Z" fill="#C9DEE9" fill-rule="evenodd"/><path d="M 613 603 L 610 602 L 611 603 L 611 606 L 608 608 L 608 614 L 605 615 L 605 618 L 605 616 L 608 614 L 608 612 L 610 611 L 610 609 L 612 608 L 612 606 L 614 605 Z" fill="#C9DEE9" fill-rule="evenodd"/><path d="M 242 528 L 240 528 L 240 554 L 242 555 L 242 557 L 240 558 L 242 559 L 242 567 L 240 568 L 240 575 L 240 571 L 242 570 L 242 552 L 240 551 L 240 549 L 242 548 Z" fill="#C9DEE9" fill-rule="evenodd"/><path d="M 704 317 L 702 763 L 706 770 L 714 762 L 712 356 L 711 352 L 704 349 L 708 343 L 704 342 L 704 336 L 711 329 L 712 344 L 708 348 L 712 350 L 712 325 L 711 329 L 707 329 Z" fill="#C9DEE9" fill-rule="evenodd"/><path d="M 480 308 L 476 310 L 484 313 L 494 312 L 500 317 L 522 322 L 550 341 L 556 342 L 580 362 L 582 369 L 588 371 L 592 381 L 599 384 L 599 391 L 605 392 L 605 401 L 609 401 L 615 414 L 614 419 L 618 420 L 618 429 L 623 433 L 622 441 L 627 446 L 627 462 L 631 466 L 633 482 L 630 486 L 633 487 L 630 541 L 621 571 L 616 574 L 618 578 L 606 596 L 617 600 L 632 565 L 640 518 L 637 466 L 619 410 L 594 371 L 562 341 L 526 321 Z" fill="#C9DEE9" fill-rule="evenodd"/><path d="M 377 320 L 329 352 L 296 397 L 280 454 L 282 511 L 292 547 L 306 577 L 341 622 L 364 641 L 398 660 L 402 653 L 418 658 L 400 648 L 391 648 L 371 634 L 360 636 L 360 631 L 365 633 L 363 627 L 358 627 L 353 619 L 348 620 L 345 612 L 332 603 L 306 566 L 289 524 L 282 464 L 291 417 L 309 380 L 324 361 L 352 338 L 382 321 L 399 317 L 405 311 L 440 307 Z" fill="#C9DEE9" fill-rule="evenodd"/><path d="M 242 288 L 240 289 L 240 503 L 240 498 L 242 497 L 240 495 L 240 480 L 242 479 Z" fill="#C9DEE9" fill-rule="evenodd"/><path d="M 657 261 L 654 259 L 654 257 L 653 259 L 651 259 L 650 268 L 643 276 L 632 279 L 628 277 L 624 273 L 624 278 L 623 279 L 627 280 L 630 283 L 629 282 L 630 279 L 639 278 L 641 281 L 642 279 L 646 279 L 647 280 L 647 282 L 643 285 L 635 285 L 632 284 L 632 286 L 633 285 L 643 285 L 646 283 L 649 284 L 649 282 L 652 278 L 655 277 L 654 276 L 654 273 L 655 272 L 655 262 Z M 654 262 L 655 263 L 655 272 L 654 274 L 651 276 L 651 280 L 648 281 L 646 277 L 646 274 L 650 269 L 651 263 Z" fill="#C9DEE9" fill-rule="evenodd"/><path d="M 723 246 L 723 327 L 723 307 L 724 306 L 724 255 L 723 254 Z" fill="#C9DEE9" fill-rule="evenodd"/><path d="M 247 199 L 257 193 L 263 196 L 277 189 L 663 210 L 694 214 L 707 223 L 704 220 L 707 213 L 822 174 L 839 174 L 701 162 L 446 152 L 271 188 Z M 308 190 L 310 185 L 396 169 L 397 166 L 411 166 L 439 157 L 793 173 L 803 176 L 802 179 L 699 212 Z" fill="#C9DEE9" fill-rule="evenodd"/><path d="M 377 651 L 378 653 L 381 654 L 383 653 Z" fill="#ECF3F7" fill-rule="evenodd"/><path d="M 512 597 L 503 600 L 496 601 L 498 602 L 498 604 Z" fill="#ECF3F7" fill-rule="evenodd"/><path d="M 389 587 L 392 587 L 393 590 L 396 590 L 400 592 L 401 595 L 403 596 L 406 595 L 412 599 L 414 599 L 419 602 L 430 606 L 434 606 L 434 605 L 436 604 L 438 599 L 442 599 L 435 596 L 432 597 L 422 592 L 420 589 L 416 589 L 408 584 L 408 582 L 406 582 L 405 580 L 400 579 L 398 577 L 398 575 L 395 575 L 395 579 L 393 582 L 391 582 L 391 586 Z" fill="#ECF3F7" fill-rule="evenodd"/><path d="M 575 434 L 573 434 L 571 429 L 569 428 L 567 431 L 564 430 L 562 433 L 559 432 L 557 433 L 555 436 L 550 437 L 551 438 L 551 444 L 549 445 L 550 445 L 551 447 L 552 446 L 555 447 L 557 444 L 564 441 L 567 441 L 568 442 L 569 439 L 572 439 L 573 440 Z" fill="#ECF3F7" fill-rule="evenodd"/><path d="M 587 394 L 565 366 L 542 347 L 520 334 L 471 319 L 422 319 L 400 324 L 373 335 L 333 365 L 307 403 L 308 406 L 300 421 L 295 450 L 299 452 L 305 424 L 316 400 L 336 373 L 370 346 L 416 329 L 464 327 L 500 336 L 523 347 L 547 364 L 578 400 Z" fill="#ECF3F7" fill-rule="evenodd"/><path d="M 694 311 L 677 310 L 675 681 L 541 674 L 538 666 L 510 676 L 460 678 L 391 657 L 388 665 L 260 655 L 260 664 L 249 666 L 297 667 L 348 692 L 374 720 L 380 747 L 669 770 L 677 757 L 688 768 L 679 777 L 683 780 L 696 752 Z M 675 687 L 678 688 L 678 695 L 677 696 L 674 695 L 674 688 Z" fill="#ECF3F7" fill-rule="evenodd"/><path d="M 649 249 L 648 249 L 650 257 L 653 259 L 653 262 L 650 263 L 650 267 L 646 274 L 644 274 L 642 276 L 636 278 L 631 278 L 621 270 L 621 268 L 619 269 L 620 269 L 622 272 L 621 275 L 624 277 L 624 280 L 626 281 L 627 283 L 629 283 L 630 285 L 635 285 L 636 287 L 637 286 L 642 287 L 645 286 L 650 280 L 653 280 L 651 279 L 651 277 L 654 276 L 655 272 L 657 271 L 656 270 L 656 263 L 657 262 L 655 261 L 654 258 L 655 255 L 653 255 Z" fill="#ECF3F7" fill-rule="evenodd"/><path d="M 714 240 L 699 247 L 704 272 L 704 303 L 699 307 L 703 308 L 703 743 L 706 378 L 713 382 L 707 386 L 713 387 L 714 664 Z M 703 373 L 704 372 L 709 372 L 710 375 L 709 376 L 704 376 Z M 703 363 L 704 362 L 707 362 L 708 365 L 709 363 L 711 363 L 713 369 L 712 370 L 708 370 L 707 369 L 707 371 L 704 372 L 703 371 L 703 367 L 706 366 L 704 366 Z" fill="#ECF3F7" fill-rule="evenodd"/><path d="M 705 215 L 711 219 L 711 218 L 713 217 L 711 216 L 711 213 Z" fill="#ECF3F7" fill-rule="evenodd"/><path d="M 735 210 L 731 211 L 730 210 L 730 207 L 729 209 L 726 208 L 723 209 L 726 209 L 727 210 L 727 213 L 726 214 L 722 214 L 719 216 L 722 214 L 726 214 L 727 215 L 733 213 Z" fill="#ECF3F7" fill-rule="evenodd"/><path d="M 687 208 L 684 207 L 679 208 L 678 212 L 676 213 L 680 213 L 681 210 L 684 210 L 685 208 Z" fill="#ECF3F7" fill-rule="evenodd"/><path d="M 658 209 L 660 210 L 660 212 L 664 212 L 663 211 L 663 208 L 664 207 L 667 207 L 661 207 L 660 209 Z" fill="#ECF3F7" fill-rule="evenodd"/><path d="M 589 205 L 595 205 L 596 208 L 600 208 L 598 207 L 598 205 Z" fill="#ECF3F7" fill-rule="evenodd"/><path d="M 609 206 L 611 207 L 611 209 L 615 209 L 615 205 L 616 204 L 625 204 L 611 204 L 611 205 Z" fill="#ECF3F7" fill-rule="evenodd"/><path d="M 761 204 L 759 203 L 758 205 L 753 204 L 752 207 Z" fill="#ECF3F7" fill-rule="evenodd"/><path d="M 718 205 L 717 203 L 713 205 L 708 205 L 705 206 L 705 208 L 703 209 L 707 208 L 708 205 L 710 205 L 711 207 L 715 205 Z" fill="#ECF3F7" fill-rule="evenodd"/><path d="M 574 204 L 576 205 L 576 207 L 582 207 L 579 207 L 577 202 L 576 204 Z" fill="#ECF3F7" fill-rule="evenodd"/><path d="M 535 202 L 536 205 L 544 205 L 541 205 L 540 202 L 538 202 L 537 200 L 537 201 Z" fill="#ECF3F7" fill-rule="evenodd"/><path d="M 518 201 L 520 202 L 520 204 L 523 204 L 523 200 L 524 199 L 530 199 L 522 199 L 521 201 Z" fill="#ECF3F7" fill-rule="evenodd"/><path d="M 653 206 L 642 206 L 641 203 L 643 202 L 643 198 L 643 201 L 641 202 L 640 205 L 627 205 L 627 207 L 629 208 L 629 210 L 632 210 L 631 209 L 631 206 L 632 205 L 639 205 L 642 207 L 643 211 L 648 211 L 648 207 L 649 206 Z" fill="#ECF3F7" fill-rule="evenodd"/><path d="M 478 199 L 480 199 L 481 202 L 485 202 L 483 201 L 483 198 L 484 197 L 491 197 L 480 197 L 480 198 Z" fill="#ECF3F7" fill-rule="evenodd"/><path d="M 509 196 L 508 198 L 499 198 L 499 203 L 504 203 L 505 199 L 506 198 L 509 198 Z" fill="#ECF3F7" fill-rule="evenodd"/><path d="M 457 198 L 460 198 L 461 201 L 468 201 L 465 200 L 465 197 L 466 196 L 473 196 L 462 196 L 461 198 Z" fill="#ECF3F7" fill-rule="evenodd"/><path d="M 744 197 L 743 195 L 736 198 L 732 198 L 729 200 L 725 200 L 724 203 L 725 200 L 727 200 L 728 202 L 741 197 Z" fill="#ECF3F7" fill-rule="evenodd"/><path d="M 437 197 L 439 197 L 440 200 L 450 200 L 446 200 L 443 195 L 442 197 Z" fill="#ECF3F7" fill-rule="evenodd"/><path d="M 420 196 L 420 199 L 427 199 L 425 198 L 425 196 L 424 196 L 423 194 Z" fill="#ECF3F7" fill-rule="evenodd"/><path d="M 400 198 L 407 198 L 408 194 L 410 193 L 408 193 L 407 195 L 403 195 L 402 193 L 402 194 L 400 195 Z" fill="#ECF3F7" fill-rule="evenodd"/><path d="M 391 197 L 390 196 L 390 192 L 389 194 L 383 194 L 385 194 L 386 197 Z" fill="#ECF3F7" fill-rule="evenodd"/><path d="M 675 191 L 670 194 L 669 196 L 670 198 Z" fill="#ECF3F7" fill-rule="evenodd"/><path d="M 328 189 L 328 193 L 327 194 L 332 194 L 333 189 Z" fill="#ECF3F7" fill-rule="evenodd"/><path d="M 375 191 L 369 191 L 368 188 L 367 191 L 364 191 L 363 190 L 345 190 L 343 195 L 349 195 L 349 193 L 352 192 L 353 190 L 363 190 L 365 192 L 365 195 L 364 196 L 370 196 L 369 195 L 369 192 L 370 191 Z" fill="#ECF3F7" fill-rule="evenodd"/><path d="M 307 188 L 311 191 L 311 193 L 317 193 L 314 193 L 313 190 L 311 189 L 311 187 Z" fill="#ECF3F7" fill-rule="evenodd"/><path d="M 349 179 L 349 181 L 352 181 L 353 182 L 353 185 L 353 183 L 356 182 L 356 180 L 355 180 L 354 178 L 353 180 Z" fill="#ECF3F7" fill-rule="evenodd"/><path d="M 825 181 L 828 181 L 829 182 L 838 179 L 836 179 L 834 177 L 833 178 L 828 178 L 827 176 L 826 176 L 827 177 L 827 180 Z" fill="#ECF3F7" fill-rule="evenodd"/><path d="M 375 176 L 374 174 L 373 174 L 372 176 L 368 175 L 367 177 L 363 176 L 362 178 L 359 177 L 358 179 L 360 180 L 360 183 L 362 183 L 363 185 L 364 185 L 364 180 L 365 179 L 367 179 L 370 183 L 374 183 L 373 177 Z" fill="#ECF3F7" fill-rule="evenodd"/><path d="M 729 176 L 731 177 L 732 176 L 737 177 L 738 178 L 737 181 L 732 180 L 732 181 L 734 181 L 737 183 L 739 182 L 738 181 L 738 178 L 741 177 L 742 180 L 743 180 L 746 184 L 746 186 L 748 185 L 749 182 L 752 183 L 768 183 L 771 182 L 772 183 L 774 177 L 776 177 L 777 180 L 777 178 L 780 177 L 781 180 L 782 177 L 791 177 L 791 176 L 793 175 L 786 175 L 785 177 L 769 177 L 766 176 L 765 174 L 758 174 L 757 176 L 742 176 L 741 173 L 737 173 L 736 175 Z M 768 177 L 769 178 L 769 181 L 766 183 L 763 183 L 762 182 L 762 179 Z" fill="#ECF3F7" fill-rule="evenodd"/><path d="M 685 173 L 685 176 L 683 177 L 683 179 L 681 180 L 681 182 L 679 184 L 681 185 L 680 193 L 684 193 L 685 194 L 686 192 L 688 192 L 689 193 L 689 196 L 686 197 L 698 196 L 699 199 L 700 199 L 700 196 L 698 196 L 697 194 L 696 196 L 693 196 L 691 193 L 689 192 L 689 190 L 688 192 L 684 191 L 683 188 L 686 187 L 686 186 L 685 187 L 682 187 L 681 184 L 684 183 L 685 180 L 687 180 L 688 183 L 691 178 L 694 178 L 695 181 L 699 184 L 699 186 L 697 187 L 696 191 L 697 190 L 700 191 L 703 190 L 702 188 L 699 187 L 699 185 L 702 183 L 710 183 L 710 181 L 712 180 L 711 179 L 712 176 L 714 176 L 718 179 L 721 178 L 720 178 L 719 176 L 717 176 L 716 174 L 715 176 L 709 176 L 708 174 L 708 176 L 706 178 L 703 178 L 702 176 L 701 176 L 701 178 L 698 179 L 697 178 L 697 174 L 700 173 L 700 171 L 696 171 L 695 173 L 692 173 L 696 173 L 697 174 L 696 177 L 694 178 L 689 178 L 685 176 Z M 697 180 L 700 179 L 701 182 L 698 183 Z" fill="#ECF3F7" fill-rule="evenodd"/><path d="M 609 170 L 611 170 L 612 172 L 615 172 L 616 169 L 618 169 L 620 172 L 621 169 L 625 169 L 626 170 L 644 170 L 645 171 L 644 168 L 639 168 L 638 170 L 631 170 L 630 169 L 624 169 L 623 167 L 617 167 L 616 169 Z" fill="#ECF3F7" fill-rule="evenodd"/><path d="M 591 168 L 598 168 L 598 167 L 600 166 L 594 166 L 593 168 Z" fill="#ECF3F7" fill-rule="evenodd"/><path d="M 422 164 L 420 164 L 419 167 L 417 167 L 416 165 L 415 168 L 413 168 L 412 166 L 410 169 L 408 169 L 407 167 L 406 169 L 402 168 L 401 170 L 422 166 Z" fill="#ECF3F7" fill-rule="evenodd"/><path d="M 491 163 L 503 163 L 502 161 L 495 161 L 494 163 Z" fill="#ECF3F7" fill-rule="evenodd"/><path d="M 483 162 L 481 162 L 480 160 L 473 160 L 472 162 L 462 162 Z" fill="#ECF3F7" fill-rule="evenodd"/><path d="M 447 161 L 455 161 L 456 164 L 457 161 L 460 161 L 457 161 L 456 159 L 448 159 Z" fill="#ECF3F7" fill-rule="evenodd"/><path d="M 396 574 L 389 586 L 392 589 L 415 602 L 434 608 L 437 599 L 439 598 L 420 590 L 418 588 L 408 583 Z M 394 578 L 396 576 L 398 576 L 412 586 L 423 591 L 427 594 L 436 597 L 437 598 L 437 601 L 435 605 L 433 607 L 424 605 L 414 600 L 412 600 L 406 596 L 404 596 L 402 594 L 397 592 L 391 587 L 391 584 Z" fill="#FBFCFD" fill-rule="evenodd"/><path d="M 528 526 L 524 525 L 520 527 L 513 534 L 510 539 L 510 542 L 509 543 L 512 548 L 517 548 L 524 543 L 529 533 L 529 527 Z" fill="#FBFCFD" fill-rule="evenodd"/><path d="M 572 428 L 567 429 L 551 436 L 549 440 L 550 449 L 555 446 L 560 445 L 563 443 L 575 439 L 576 438 Z M 554 435 L 557 436 L 557 438 L 555 440 L 552 439 L 552 437 Z M 558 434 L 563 431 L 567 431 L 568 432 L 568 437 L 564 439 L 560 439 L 558 436 Z" fill="#FBFCFD" fill-rule="evenodd"/><path d="M 586 392 L 556 358 L 531 340 L 513 331 L 490 323 L 462 318 L 418 320 L 389 328 L 368 338 L 336 362 L 320 381 L 305 408 L 298 429 L 295 449 L 300 452 L 305 428 L 318 399 L 334 377 L 349 362 L 378 343 L 418 330 L 461 328 L 497 336 L 524 349 L 544 363 L 559 377 L 577 401 Z M 585 391 L 583 396 L 576 398 L 563 381 L 542 361 L 514 343 L 495 335 L 464 328 L 441 327 L 416 330 L 384 340 L 346 364 L 320 395 L 306 424 L 300 449 L 295 449 L 300 422 L 307 404 L 331 368 L 349 351 L 372 336 L 395 326 L 418 320 L 461 318 L 489 323 L 515 332 L 553 356 L 571 373 Z" fill="#FBFCFD" fill-rule="evenodd"/><path d="M 242 287 L 240 664 L 296 668 L 347 693 L 371 717 L 382 747 L 670 769 L 676 312 L 695 311 L 695 704 L 698 308 Z M 259 655 L 388 664 L 397 661 L 398 664 L 401 662 L 422 670 L 460 677 L 492 677 L 527 671 L 672 681 L 675 685 L 675 721 L 672 722 L 675 723 L 675 759 L 668 770 L 656 771 L 655 768 L 641 770 L 384 747 L 379 743 L 373 720 L 348 693 L 297 668 L 260 667 Z M 376 319 L 411 308 L 442 304 L 470 305 L 509 313 L 543 328 L 569 345 L 592 367 L 615 400 L 627 426 L 639 471 L 638 546 L 626 585 L 610 613 L 590 636 L 564 655 L 529 670 L 489 677 L 453 676 L 416 668 L 379 652 L 352 633 L 325 606 L 302 572 L 287 536 L 279 499 L 279 451 L 285 422 L 300 387 L 319 361 L 348 335 Z" fill="#FBFCFD" fill-rule="evenodd"/><path d="M 634 244 L 627 247 L 623 251 L 619 261 L 619 268 L 622 277 L 626 282 L 633 286 L 640 287 L 633 286 L 629 284 L 623 278 L 621 272 L 624 271 L 631 277 L 636 277 L 642 275 L 646 272 L 649 267 L 649 263 L 650 262 L 649 253 L 652 252 L 656 259 L 656 264 L 657 265 L 656 273 L 653 279 L 648 284 L 644 286 L 642 286 L 647 285 L 650 283 L 654 278 L 657 270 L 657 263 L 656 262 L 656 258 L 653 252 L 648 247 L 641 244 Z" fill="#FBFCFD" fill-rule="evenodd"/><path d="M 240 203 L 256 201 L 677 226 L 692 234 L 701 250 L 702 303 L 701 249 L 704 244 L 713 248 L 713 263 L 710 228 L 700 218 L 687 214 L 278 192 Z" fill="#FBFCFD" fill-rule="evenodd"/><path d="M 837 179 L 835 179 L 832 176 L 815 179 L 779 191 L 776 193 L 773 193 L 748 202 L 745 202 L 736 205 L 730 208 L 727 208 L 721 211 L 718 211 L 706 215 L 712 219 L 715 219 L 733 212 L 736 212 L 816 185 L 819 185 Z" fill="#FBFCFD" fill-rule="evenodd"/><path d="M 305 189 L 697 210 L 805 176 L 441 160 Z" fill="#FBFCFD" fill-rule="evenodd"/>
  </g>
</svg>
